<?xml version="1.0" encoding="UTF-8"?>
<!DOCTYPE svg PUBLIC "-//W3C//DTD SVG 1.1//EN" "http://www.w3.org/Graphics/SVG/1.1/DTD/svg11.dtd">
<svg xmlns="http://www.w3.org/2000/svg" version="1.1" width="600px" height="510px" style="shape-rendering:geometricPrecision; text-rendering:geometricPrecision; image-rendering:optimizeQuality; fill-rule:evenodd; clip-rule:evenodd" xmlns:xlink="http://www.w3.org/1999/xlink">
<g><path style="opacity:1" fill="#fefefe" d="M -0.5,-0.5 C 199.5,-0.5 399.5,-0.5 599.5,-0.5C 599.5,169.5 599.5,339.5 599.5,509.5C 485.5,509.5 371.5,509.5 257.5,509.5C 254.809,506.001 251.476,505.501 247.5,508C 248.056,508.383 248.389,508.883 248.5,509.5C 165.5,509.5 82.5,509.5 -0.5,509.5C -0.5,339.5 -0.5,169.5 -0.5,-0.5 Z"/></g>
<g><path style="opacity:1" fill="#dcf7fa" d="M 287.5,24.5 C 279.498,25.1755 271.498,26.5088 263.5,28.5C 265.372,26.9385 267.705,25.9385 270.5,25.5C 276.128,24.5046 281.794,24.1712 287.5,24.5 Z"/></g>
<g><path style="opacity:1" fill="#d8f7fc" d="M 287.5,24.5 C 300.71,23.2259 314.043,23.5592 327.5,25.5C 328.243,26.1818 328.909,26.8485 329.5,27.5C 315.639,25.0048 301.639,24.0048 287.5,24.5 Z"/></g>
<g><path style="opacity:1" fill="#0f86c8" d="M 334.5,29.5 C 335.5,29.5 336.5,29.5 337.5,29.5C 337.47,30.4972 337.97,31.1639 339,31.5C 348.523,33.8418 357.023,38.0085 364.5,44C 366.33,44.1816 367.997,43.6816 369.5,42.5C 375.435,45.1355 381.102,48.3022 386.5,52C 394.325,57.9939 401.658,64.4939 408.5,71.5C 408.238,72.9778 408.571,74.3112 409.5,75.5C 413.855,80.1869 418.188,84.8536 422.5,89.5C 426.996,95.1559 430.996,101.156 434.5,107.5C 438.299,115.896 441.299,124.562 443.5,133.5C 443.335,136.85 443.502,140.183 444,143.5C 444.29,145.044 444.956,146.377 446,147.5C 446.5,155.493 446.666,163.493 446.5,171.5C 444.833,171.5 443.167,171.5 441.5,171.5C 441.5,172.833 441.5,174.167 441.5,175.5C 440.167,175.5 438.833,175.5 437.5,175.5C 437.5,178.167 437.5,180.833 437.5,183.5C 438.833,183.5 440.167,183.5 441.5,183.5C 441.5,184.833 441.5,186.167 441.5,187.5C 443.167,187.5 444.833,187.5 446.5,187.5C 446.5,192.167 446.5,196.833 446.5,201.5C 443.904,212.118 440.57,222.451 436.5,232.5C 434.641,232.461 433.308,233.294 432.5,235C 430.19,235.497 427.857,235.663 425.5,235.5C 425.5,236.833 425.5,238.167 425.5,239.5C 424.167,239.5 422.833,239.5 421.5,239.5C 420.514,244.158 421.848,247.824 425.5,250.5C 424.652,252.409 424.318,254.409 424.5,256.5C 419.683,265.656 413.35,273.656 405.5,280.5C 402.377,279.767 399.377,278.767 396.5,277.5C 394.223,278.478 391.89,279.145 389.5,279.5C 389.876,282.707 388.876,285.373 386.5,287.5C 384.672,285.193 383.006,285.526 381.5,288.5C 384.167,289.833 384.167,291.167 381.5,292.5C 381.968,294.134 382.968,295.3 384.5,296C 383.975,296.692 383.308,297.192 382.5,297.5C 381.719,296.263 380.719,295.263 379.5,294.5C 378.769,296.401 378.769,298.401 379.5,300.5C 376.828,300.948 374.828,302.281 373.5,304.5C 369.095,307.7 364.428,310.367 359.5,312.5C 350.463,316.179 341.13,318.845 331.5,320.5C 327.563,320.793 323.73,320.46 320,319.5C 319.308,320.025 318.808,320.692 318.5,321.5C 305.5,322.833 292.5,322.833 279.5,321.5C 271.177,320.001 262.844,318.668 254.5,317.5C 249.71,316.796 245.377,315.129 241.5,312.5C 238.586,307.672 234.253,305.672 228.5,306.5C 212.704,298.107 199.037,287.107 187.5,273.5C 187.425,270.794 187.092,268.127 186.5,265.5C 182.567,265.866 179.9,264.2 178.5,260.5C 177.893,260.624 177.56,260.957 177.5,261.5C 174.11,256.767 171.11,251.767 168.5,246.5C 168.414,244.323 167.747,242.323 166.5,240.5C 166.263,236.853 166.597,233.187 167.5,229.5C 162.913,229.711 162.246,228.211 165.5,225C 164.585,220.516 163.252,220.516 161.5,225C 160.668,225.688 160.002,225.521 159.5,224.5C 160.46,218.227 160.793,211.893 160.5,205.5C 158.019,205.323 156.186,206.323 155,208.5C 154.324,204.798 153.491,201.131 152.5,197.5C 153.754,195.666 154.421,193.666 154.5,191.5C 157.5,191.5 160.5,191.5 163.5,191.5C 163.5,189.5 163.5,187.5 163.5,185.5C 162.167,185.5 160.833,185.5 159.5,185.5C 159.5,184.167 159.5,182.833 159.5,181.5C 157.167,181.5 154.833,181.5 152.5,181.5C 152.5,178.167 152.5,174.833 152.5,171.5C 154.833,171.5 157.167,171.5 159.5,171.5C 159.5,172.833 159.5,174.167 159.5,175.5C 160.833,175.5 162.167,175.5 163.5,175.5C 165.167,168.5 162.5,165.833 155.5,167.5C 155.5,164.833 155.5,162.167 155.5,159.5C 158.167,159.5 160.833,159.5 163.5,159.5C 163.5,158.167 163.5,156.833 163.5,155.5C 167.555,155.824 171.555,155.491 175.5,154.5C 171.809,152.244 167.809,151.244 163.5,151.5C 163.5,146.833 163.5,142.167 163.5,137.5C 162.167,137.5 160.833,137.5 159.5,137.5C 158.865,142.226 159.532,146.893 161.5,151.5C 159.514,154.843 156.514,156.176 152.5,155.5C 153.989,149.694 154.823,143.694 155,137.5C 156.097,135.947 157.43,134.614 159,133.5C 158.68,128.955 160.513,125.789 164.5,124C 162.69,120.249 162.357,116.416 163.5,112.5C 163.328,111.508 163.662,110.842 164.5,110.5C 167.559,106.063 170.392,101.397 173,96.5C 174.333,97.8333 175.667,97.8333 177,96.5C 177,94.5 177,92.5 177,90.5C 179.437,87.2804 181.603,83.947 183.5,80.5C 201.506,57.5206 224.506,41.5206 252.5,32.5C 256.556,32.7084 260.39,32.0417 264,30.5C 266.498,30.9172 268.998,31.2505 271.5,31.5C 271.5,30.5 271.5,29.5 271.5,28.5C 287.402,26.4492 303.402,25.9492 319.5,27C 324.302,28.5617 329.302,29.395 334.5,29.5 Z"/></g>
<g><path style="opacity:1" fill="#b5e7f2" d="M 331.5,27.5 C 334.152,27.4095 336.485,28.0762 338.5,29.5C 338.167,29.5 337.833,29.5 337.5,29.5C 336.5,29.5 335.5,29.5 334.5,29.5C 333.5,28.8333 332.5,28.1667 331.5,27.5 Z"/></g>
<g><path style="opacity:1" fill="#2e88b9" d="M 287.5,24.5 C 301.639,24.0048 315.639,25.0048 329.5,27.5C 330.167,27.5 330.833,27.5 331.5,27.5C 332.5,28.1667 333.5,28.8333 334.5,29.5C 329.302,29.395 324.302,28.5617 319.5,27C 303.402,25.9492 287.402,26.4492 271.5,28.5C 271.5,29.5 271.5,30.5 271.5,31.5C 268.998,31.2505 266.498,30.9172 264,30.5C 260.39,32.0417 256.556,32.7084 252.5,32.5C 256.041,30.7648 259.707,29.4314 263.5,28.5C 271.498,26.5088 279.498,25.1755 287.5,24.5 Z"/></g>
<g><path style="opacity:1" fill="#2185b6" d="M 337.5,29.5 C 337.833,29.5 338.167,29.5 338.5,29.5C 349.474,32.4859 359.808,36.8192 369.5,42.5C 367.997,43.6816 366.33,44.1816 364.5,44C 357.023,38.0085 348.523,33.8418 339,31.5C 337.97,31.1639 337.47,30.4972 337.5,29.5 Z"/></g>
<g><path style="opacity:1" fill="#2d87b5" d="M 408.5,71.5 C 412.874,75.8722 416.874,80.5389 420.5,85.5C 421.6,86.6049 422.267,87.9382 422.5,89.5C 418.188,84.8536 413.855,80.1869 409.5,75.5C 408.571,74.3112 408.238,72.9778 408.5,71.5 Z"/></g>
<g><path style="opacity:1" fill="#def9fd" d="M 420.5,85.5 C 423.239,86.4306 425.239,88.2639 426.5,91C 429.592,96.3494 432.259,101.849 434.5,107.5C 430.996,101.156 426.996,95.1559 422.5,89.5C 422.267,87.9382 421.6,86.6049 420.5,85.5 Z"/></g>
<g><path style="opacity:1" fill="#2683b8" d="M 183.5,80.5 C 181.603,83.947 179.437,87.2804 177,90.5C 177,92.5 177,94.5 177,96.5C 175.667,97.8333 174.333,97.8333 173,96.5C 170.392,101.397 167.559,106.063 164.5,110.5C 169.261,99.426 175.594,89.426 183.5,80.5 Z"/></g>
<g><path style="opacity:1" fill="#1c86c2" d="M 351.5,118.5 C 341.015,115.726 330.515,113.059 320,110.5C 306.57,111.737 293.403,113.737 280.5,116.5C 276.452,116.395 272.452,116.728 268.5,117.5C 270.026,115.87 272.026,115.037 274.5,115C 278.5,114.667 282.5,114.333 286.5,114C 285.833,113.667 285.167,113.333 284.5,113C 293.958,112.478 303.291,111.478 312.5,110C 314.107,108.951 314.773,107.451 314.5,105.5C 313.022,105.762 311.689,105.429 310.5,104.5C 310.709,103.914 311.043,103.414 311.5,103C 314.167,102.333 316.833,102.333 319.5,103C 321.155,104.444 321.822,106.278 321.5,108.5C 325.554,108.456 328.221,106.456 329.5,102.5C 331.396,101.534 333.396,101.201 335.5,101.5C 335.5,102.833 335.5,104.167 335.5,105.5C 336.833,105.5 338.167,105.5 339.5,105.5C 339.5,107.167 339.5,108.833 339.5,110.5C 342.518,110.8 344.518,112.467 345.5,115.5C 347.975,115.964 349.975,116.964 351.5,118.5 Z"/></g>
<g><path style="opacity:1" fill="#fbfefe" d="M 351.5,118.5 C 360.095,121.198 368.762,124.031 377.5,127C 378.973,127.71 379.64,128.876 379.5,130.5C 377.421,130.971 375.421,131.637 373.5,132.5C 370.144,131.422 367.144,132.088 364.5,134.5C 358.644,135.382 352.978,136.715 347.5,138.5C 334.159,140.836 320.826,143.169 307.5,145.5C 305.69,144.045 304.023,144.212 302.5,146C 297.863,146.829 293.196,147.329 288.5,147.5C 287.508,147.672 286.842,147.338 286.5,146.5C 279.136,142.603 271.136,139.936 262.5,138.5C 258.653,138.106 254.986,137.106 251.5,135.5C 251.047,134.542 250.381,133.708 249.5,133C 244.087,132.123 238.92,130.623 234,128.5C 232.014,128.569 230.514,129.235 229.5,130.5C 228.5,130.5 227.5,130.5 226.5,130.5C 226.5,129.167 226.5,127.833 226.5,126.5C 235.532,125.001 244.532,123.501 253.5,122C 255.066,121.392 256.4,120.558 257.5,119.5C 264.831,119.048 272.165,118.548 279.5,118C 280.056,117.617 280.389,117.117 280.5,116.5C 293.403,113.737 306.57,111.737 320,110.5C 330.515,113.059 341.015,115.726 351.5,118.5 Z"/></g>
<g><path style="opacity:1" fill="#d3f4fb" d="M 280.5,116.5 C 280.389,117.117 280.056,117.617 279.5,118C 272.165,118.548 264.831,119.048 257.5,119.5C 260.974,118.475 264.64,117.808 268.5,117.5C 272.452,116.728 276.452,116.395 280.5,116.5 Z"/></g>
<g><path style="opacity:1" fill="#e3f9fc" d="M 257.5,119.5 C 256.4,120.558 255.066,121.392 253.5,122C 244.532,123.501 235.532,125.001 226.5,126.5C 227.343,124.827 228.676,123.66 230.5,123C 239.454,121.396 248.454,120.229 257.5,119.5 Z"/></g>
<g><path style="opacity:1" fill="#daf7fc" d="M 251.5,135.5 C 246.234,133.581 240.901,131.915 235.5,130.5C 233.611,129.258 231.611,129.258 229.5,130.5C 230.514,129.235 232.014,128.569 234,128.5C 238.92,130.623 244.087,132.123 249.5,133C 250.381,133.708 251.047,134.542 251.5,135.5 Z"/></g>
<g><path style="opacity:1" fill="#1386c7" d="M 235.5,130.5 C 240.901,131.915 246.234,133.581 251.5,135.5C 254.986,137.106 258.653,138.106 262.5,138.5C 263.167,139.167 263.833,139.833 264.5,140.5C 269.123,142.462 273.623,144.795 278,147.5C 282.241,146.798 286.075,147.965 289.5,151C 290.471,156.072 290.805,161.238 290.5,166.5C 281.014,163.419 271.348,161.086 261.5,159.5C 251.413,157.478 241.413,155.145 231.5,152.5C 231.5,152.167 231.5,151.833 231.5,151.5C 228.893,145.769 228.059,139.769 229,133.5C 230.509,131.081 232.675,130.081 235.5,130.5 Z"/></g>
<g><path style="opacity:1" fill="#2689c2" d="M 224.5,127.5 C 221.445,136.903 222.112,146.07 226.5,155C 224.733,156.826 222.566,157.993 220,158.5C 219.7,160.066 220.2,161.399 221.5,162.5C 220.5,162.5 219.5,162.5 218.5,162.5C 218.682,160.409 218.348,158.409 217.5,156.5C 218.5,153.833 219.5,153.833 220.5,156.5C 221.287,155.758 221.953,154.925 222.5,154C 222.873,150.041 222.206,146.874 220.5,144.5C 219.5,144.5 218.5,144.5 217.5,144.5C 217.335,141.482 217.502,138.482 218,135.5C 220.629,133.665 221.129,131.331 219.5,128.5C 221.045,127.548 222.712,127.215 224.5,127.5 Z"/></g>
<g><path style="opacity:1" fill="#1c87c3" d="M 163.5,112.5 C 162.357,116.416 162.69,120.249 164.5,124C 160.513,125.789 158.68,128.955 159,133.5C 157.43,134.614 156.097,135.947 155,137.5C 154.823,143.694 153.989,149.694 152.5,155.5C 156.514,156.176 159.514,154.843 161.5,151.5C 159.532,146.893 158.865,142.226 159.5,137.5C 160.833,137.5 162.167,137.5 163.5,137.5C 163.5,142.167 163.5,146.833 163.5,151.5C 167.809,151.244 171.809,152.244 175.5,154.5C 171.555,155.491 167.555,155.824 163.5,155.5C 163.5,156.833 163.5,158.167 163.5,159.5C 160.833,159.5 158.167,159.5 155.5,159.5C 155.5,162.167 155.5,164.833 155.5,167.5C 162.5,165.833 165.167,168.5 163.5,175.5C 162.167,175.5 160.833,175.5 159.5,175.5C 159.5,174.167 159.5,172.833 159.5,171.5C 157.167,171.5 154.833,171.5 152.5,171.5C 152.5,174.833 152.5,178.167 152.5,181.5C 154.833,181.5 157.167,181.5 159.5,181.5C 159.5,182.833 159.5,184.167 159.5,185.5C 160.833,185.5 162.167,185.5 163.5,185.5C 163.5,187.5 163.5,189.5 163.5,191.5C 160.5,191.5 157.5,191.5 154.5,191.5C 154.421,193.666 153.754,195.666 152.5,197.5C 153.491,201.131 154.324,204.798 155,208.5C 156.186,206.323 158.019,205.323 160.5,205.5C 160.793,211.893 160.46,218.227 159.5,224.5C 160.002,225.521 160.668,225.688 161.5,225C 163.252,220.516 164.585,220.516 165.5,225C 162.246,228.211 162.913,229.711 167.5,229.5C 166.597,233.187 166.263,236.853 166.5,240.5C 167.747,242.323 168.414,244.323 168.5,246.5C 149.717,211.874 144.883,175.207 154,136.5C 156,130.5 158,124.5 160,118.5C 160.941,116.273 162.108,114.273 163.5,112.5 Z"/></g>
<g><path style="opacity:1" fill="#2a87ba" d="M 350.5,154.5 C 351.234,153.292 351.567,151.959 351.5,150.5C 355.555,150.824 359.555,150.491 363.5,149.5C 364.04,148.252 364.707,147.085 365.5,146C 365.108,143.646 365.108,141.146 365.5,138.5C 363.334,138.421 361.334,137.754 359.5,136.5C 355.683,138.196 351.683,138.863 347.5,138.5C 352.978,136.715 358.644,135.382 364.5,134.5C 366.109,134.094 367.443,134.094 368.5,134.5C 366.98,139.706 366.147,145.039 366,150.5C 360.927,152.135 355.76,153.468 350.5,154.5 Z"/></g>
<g><path style="opacity:1" fill="#3a8fb7" d="M 235.5,130.5 C 232.675,130.081 230.509,131.081 229,133.5C 228.059,139.769 228.893,145.769 231.5,151.5C 229.59,150.025 228.424,148.025 228,145.5C 226.955,140.215 227.455,135.215 229.5,130.5C 231.611,129.258 233.611,129.258 235.5,130.5 Z"/></g>
<g><path style="opacity:1" fill="#1186c8" d="M 350.5,154.5 C 344.961,156.301 339.294,157.635 333.5,158.5C 329.774,158.177 326.107,158.511 322.5,159.5C 313.755,161.291 305.255,163.624 297,166.5C 296.501,160.843 296.334,155.176 296.5,149.5C 303.636,147.877 310.803,147.543 318,148.5C 319.968,147.643 321.968,146.643 324,145.5C 326.064,146.591 328.231,146.758 330.5,146C 329.833,145.667 329.167,145.333 328.5,145C 332.622,142.508 336.955,142.008 341.5,143.5C 342.711,142.726 342.711,141.893 341.5,141C 344.051,140.998 346.051,140.164 347.5,138.5C 351.683,138.863 355.683,138.196 359.5,136.5C 361.334,137.754 363.334,138.421 365.5,138.5C 365.108,141.146 365.108,143.646 365.5,146C 364.707,147.085 364.04,148.252 363.5,149.5C 359.555,150.491 355.555,150.824 351.5,150.5C 351.567,151.959 351.234,153.292 350.5,154.5 Z"/></g>
<g><path style="opacity:1" fill="#d8f5fb" d="M 262.5,138.5 C 271.136,139.936 279.136,142.603 286.5,146.5C 279.315,144.202 271.982,142.202 264.5,140.5C 263.833,139.833 263.167,139.167 262.5,138.5 Z"/></g>
<g><path style="opacity:1" fill="#2d88b7" d="M 264.5,140.5 C 271.982,142.202 279.315,144.202 286.5,146.5C 286.842,147.338 287.508,147.672 288.5,147.5C 289.209,148.404 290.209,148.737 291.5,148.5C 291.5,155.167 291.5,161.833 291.5,168.5C 281.16,166.272 271.16,163.272 261.5,159.5C 271.348,161.086 281.014,163.419 290.5,166.5C 290.805,161.238 290.471,156.072 289.5,151C 286.075,147.965 282.241,146.798 278,147.5C 273.623,144.795 269.123,142.462 264.5,140.5 Z"/></g>
<g><path style="opacity:1" fill="#e9fbfc" d="M 226.5,126.5 C 226.5,127.833 226.5,129.167 226.5,130.5C 227.5,130.5 228.5,130.5 229.5,130.5C 227.455,135.215 226.955,140.215 228,145.5C 228.424,148.025 229.59,150.025 231.5,151.5C 231.5,151.833 231.5,152.167 231.5,152.5C 229.478,153.507 228.145,155.174 227.5,157.5C 225.775,158.015 224.108,158.682 222.5,159.5C 223.127,160.417 223.461,161.417 223.5,162.5C 223.167,162.5 222.833,162.5 222.5,162.5C 222.167,162.5 221.833,162.5 221.5,162.5C 220.2,161.399 219.7,160.066 220,158.5C 222.566,157.993 224.733,156.826 226.5,155C 222.112,146.07 221.445,136.903 224.5,127.5C 225.167,127.167 225.833,126.833 226.5,126.5 Z"/></g>
<g><path style="opacity:1" fill="#f4fcfd" d="M 307.5,145.5 C 303.736,146.992 299.736,147.992 295.5,148.5C 294.509,154.979 294.176,161.646 294.5,168.5C 295.791,168.737 296.791,168.404 297.5,167.5C 305.405,165.404 313.405,163.738 321.5,162.5C 330.804,161.199 339.971,159.199 349,156.5C 351.674,158.248 353.84,157.748 355.5,155C 358.5,154.333 361.5,154.333 364.5,155C 365.047,155.925 365.713,156.758 366.5,157.5C 366.749,156.418 366.915,155.085 367,153.5C 368,152.833 369,152.167 370,151.5C 372.719,152.444 375.552,152.777 378.5,152.5C 379.995,152.415 380.995,153.081 381.5,154.5C 378.833,155.5 376.167,156.5 373.5,157.5C 374.531,158.7 375.365,160.034 376,161.5C 377.073,169.017 376.406,176.35 374,183.5C 373.02,184.981 371.853,186.315 370.5,187.5C 371.766,188.362 373.099,189.029 374.5,189.5C 373.254,192.643 370.92,194.643 367.5,195.5C 366.167,195.5 364.833,195.5 363.5,195.5C 348.51,198.011 333.843,201.345 319.5,205.5C 316.455,205.508 313.455,205.841 310.5,206.5C 303.281,206.125 296.281,207.125 289.5,209.5C 287.971,209.471 286.804,208.804 286,207.5C 283.973,207.986 281.807,207.986 279.5,207.5C 266.945,203.527 254.279,199.861 241.5,196.5C 241.5,195.833 241.167,195.5 240.5,195.5C 237.065,192.791 233.065,191.125 228.5,190.5C 227.584,190.543 226.917,190.876 226.5,191.5C 223.107,193.889 221.773,197.223 222.5,201.5C 221.891,206.019 223.224,209.685 226.5,212.5C 227.347,213.966 228.68,214.8 230.5,215C 244.341,218.376 258.008,222.209 271.5,226.5C 276.794,229.923 282.794,231.257 289.5,230.5C 294.325,229.331 298.991,227.998 303.5,226.5C 311.474,225.279 319.141,223.279 326.5,220.5C 326.833,220.5 327.167,220.5 327.5,220.5C 328.833,220.5 330.167,220.5 331.5,220.5C 337.411,219.208 343.411,218.375 349.5,218C 354.669,215.666 360.002,213.833 365.5,212.5C 368.13,213.378 370.797,214.045 373.5,214.5C 374.167,214.5 374.833,214.5 375.5,214.5C 375.804,215.15 376.137,215.817 376.5,216.5C 371.695,218.578 366.695,219.912 361.5,220.5C 358.933,220.721 356.599,221.388 354.5,222.5C 353.833,222.5 353.167,222.5 352.5,222.5C 346.859,223.31 341.193,224.144 335.5,225C 332.497,225.749 329.831,226.915 327.5,228.5C 324.646,229.205 321.979,230.205 319.5,231.5C 309.476,233.332 299.476,235.498 289.5,238C 287.167,238.667 284.833,238.667 282.5,238C 263.84,232.001 245.173,226.001 226.5,220C 221.637,217.083 218.637,212.917 217.5,207.5C 217.334,202.489 217.501,197.489 218,192.5C 218.972,190.695 220.139,189.028 221.5,187.5C 220.311,186.571 218.978,186.238 217.5,186.5C 217.511,184.983 218.177,183.816 219.5,183C 222.5,182 225.5,181 228.5,180C 229.252,179.329 229.586,178.496 229.5,177.5C 230.302,176.048 230.802,174.382 231,172.5C 231.333,175.833 231.667,179.167 232,182.5C 240.053,185.736 248.553,187.736 257.5,188.5C 267.442,190.819 277.442,192.819 287.5,194.5C 292.722,197.221 298.389,198.554 304.5,198.5C 304.5,192.167 304.5,185.833 304.5,179.5C 297.549,178.175 290.549,177.175 283.5,176.5C 279.058,175.01 274.391,174.01 269.5,173.5C 266.358,172.21 263.025,171.21 259.5,170.5C 259.53,169.503 259.03,168.836 258,168.5C 246.547,166.049 235.047,164.049 223.5,162.5C 223.461,161.417 223.127,160.417 222.5,159.5C 224.108,158.682 225.775,158.015 227.5,157.5C 228.145,155.174 229.478,153.507 231.5,152.5C 241.413,155.145 251.413,157.478 261.5,159.5C 271.16,163.272 281.16,166.272 291.5,168.5C 291.5,161.833 291.5,155.167 291.5,148.5C 290.209,148.737 289.209,148.404 288.5,147.5C 293.196,147.329 297.863,146.829 302.5,146C 304.023,144.212 305.69,144.045 307.5,145.5 Z"/></g>
<g><path style="opacity:1" fill="#def7fc" d="M 373.5,132.5 C 370.399,137.755 369.732,143.422 371.5,149.5C 374.016,150.33 376.35,151.33 378.5,152.5C 375.552,152.777 372.719,152.444 370,151.5C 369,152.167 368,152.833 367,153.5C 366.915,155.085 366.749,156.418 366.5,157.5C 365.713,156.758 365.047,155.925 364.5,155C 361.5,154.333 358.5,154.333 355.5,155C 353.84,157.748 351.674,158.248 349,156.5C 339.971,159.199 330.804,161.199 321.5,162.5C 325.442,160.964 329.442,159.63 333.5,158.5C 339.294,157.635 344.961,156.301 350.5,154.5C 355.76,153.468 360.927,152.135 366,150.5C 366.147,145.039 366.98,139.706 368.5,134.5C 367.443,134.094 366.109,134.094 364.5,134.5C 367.144,132.088 370.144,131.422 373.5,132.5 Z"/></g>
<g><path style="opacity:1" fill="#348bbe" d="M 379.5,130.5 C 377.873,132.63 376.04,134.63 374,136.5C 373.667,136.167 373.333,135.833 373,135.5C 372.333,138.833 372.333,142.167 373,145.5C 374.011,144.663 375.178,144.33 376.5,144.5C 376.5,145.5 376.5,146.5 376.5,147.5C 375.448,147.351 374.448,147.517 373.5,148C 376.078,149.783 378.911,150.949 382,151.5C 382.495,153.473 382.662,155.473 382.5,157.5C 381.5,157.5 380.5,157.5 379.5,157.5C 378.938,164.826 378.272,172.159 377.5,179.5C 375.75,182.565 374.75,185.898 374.5,189.5C 373.099,189.029 371.766,188.362 370.5,187.5C 371.853,186.315 373.02,184.981 374,183.5C 376.406,176.35 377.073,169.017 376,161.5C 375.365,160.034 374.531,158.7 373.5,157.5C 376.167,156.5 378.833,155.5 381.5,154.5C 380.995,153.081 379.995,152.415 378.5,152.5C 376.35,151.33 374.016,150.33 371.5,149.5C 369.732,143.422 370.399,137.755 373.5,132.5C 375.421,131.637 377.421,130.971 379.5,130.5 Z"/></g>
<g><path style="opacity:1" fill="#1f86c2" d="M 443.5,133.5 C 445.948,139.868 447.614,146.534 448.5,153.5C 449.577,164.807 449.743,176.14 449,187.5C 448.884,192.434 448.051,197.1 446.5,201.5C 446.5,196.833 446.5,192.167 446.5,187.5C 444.833,187.5 443.167,187.5 441.5,187.5C 441.5,186.167 441.5,184.833 441.5,183.5C 440.167,183.5 438.833,183.5 437.5,183.5C 437.5,180.833 437.5,178.167 437.5,175.5C 438.833,175.5 440.167,175.5 441.5,175.5C 441.5,174.167 441.5,172.833 441.5,171.5C 443.167,171.5 444.833,171.5 446.5,171.5C 446.666,163.493 446.5,155.493 446,147.5C 444.956,146.377 444.29,145.044 444,143.5C 443.502,140.183 443.335,136.85 443.5,133.5 Z"/></g>
<g><path style="opacity:1" fill="#2e89ba" d="M 367.5,182.5 C 367.5,180.5 367.5,178.5 367.5,176.5C 368.5,176.5 369.5,176.5 370.5,176.5C 370.666,172.486 370.499,168.486 370,164.5C 367.501,163.202 365.167,163.536 363,165.5C 362.261,164.426 361.261,163.759 360,163.5C 353.063,167.388 345.563,169.722 337.5,170.5C 344.882,167.225 352.549,164.392 360.5,162C 368.871,159.028 372.537,162.028 371.5,171C 372.298,175.741 370.965,179.574 367.5,182.5 Z"/></g>
<g><path style="opacity:1" fill="#71abc8" d="M 295.5,148.5 C 294.877,155.255 295.544,161.588 297.5,167.5C 296.791,168.404 295.791,168.737 294.5,168.5C 294.176,161.646 294.509,154.979 295.5,148.5 Z"/></g>
<g><path style="opacity:1" fill="#2686bb" d="M 347.5,138.5 C 346.051,140.164 344.051,140.998 341.5,141C 342.711,141.893 342.711,142.726 341.5,143.5C 336.955,142.008 332.622,142.508 328.5,145C 329.167,145.333 329.833,145.667 330.5,146C 328.231,146.758 326.064,146.591 324,145.5C 321.968,146.643 319.968,147.643 318,148.5C 310.803,147.543 303.636,147.877 296.5,149.5C 296.334,155.176 296.501,160.843 297,166.5C 305.255,163.624 313.755,161.291 322.5,159.5C 326.107,158.511 329.774,158.177 333.5,158.5C 329.442,159.63 325.442,160.964 321.5,162.5C 313.405,163.738 305.405,165.404 297.5,167.5C 295.544,161.588 294.877,155.255 295.5,148.5C 299.736,147.992 303.736,146.992 307.5,145.5C 320.826,143.169 334.159,140.836 347.5,138.5 Z"/></g>
<g><path style="opacity:1" fill="#1386c7" d="M 367.5,182.5 C 351.003,187.326 334.336,191.993 317.5,196.5C 314.552,196.777 311.719,196.444 309,195.5C 308.171,190.467 308.338,185.467 309.5,180.5C 315.627,178.926 321.293,176.592 326.5,173.5C 329.854,171.742 333.521,170.742 337.5,170.5C 345.563,169.722 353.063,167.388 360,163.5C 361.261,163.759 362.261,164.426 363,165.5C 365.167,163.536 367.501,163.202 370,164.5C 370.499,168.486 370.666,172.486 370.5,176.5C 369.5,176.5 368.5,176.5 367.5,176.5C 367.5,178.5 367.5,180.5 367.5,182.5 Z"/></g>
<g><path style="opacity:1" fill="#2e87b8" d="M 259.5,170.5 C 263.025,171.21 266.358,172.21 269.5,173.5C 261.749,172.43 254.082,170.93 246.5,169C 242.1,168.022 237.933,168.522 234,170.5C 233.502,173.817 233.335,177.15 233.5,180.5C 235.38,180.229 236.713,180.896 237.5,182.5C 235.856,182.714 234.356,182.38 233,181.5C 232.609,176.146 232.109,170.812 231.5,165.5C 240.891,166.794 250.224,168.461 259.5,170.5 Z"/></g>
<g><path style="opacity:1" fill="#def8fc" d="M 223.5,162.5 C 235.047,164.049 246.547,166.049 258,168.5C 259.03,168.836 259.53,169.503 259.5,170.5C 250.224,168.461 240.891,166.794 231.5,165.5C 232.109,170.812 232.609,176.146 233,181.5C 234.356,182.38 235.856,182.714 237.5,182.5C 240.003,183.371 242.67,184.037 245.5,184.5C 249.5,185.833 253.5,187.167 257.5,188.5C 248.553,187.736 240.053,185.736 232,182.5C 231.667,179.167 231.333,175.833 231,172.5C 230.802,174.382 230.302,176.048 229.5,177.5C 230.591,171.079 228.591,166.079 223.5,162.5 Z"/></g>
<g><path style="opacity:1" fill="#1086c8" d="M 269.5,173.5 C 274.391,174.01 279.058,175.01 283.5,176.5C 289.477,179.036 295.811,180.37 302.5,180.5C 302.324,185.88 302.658,191.213 303.5,196.5C 298.167,195.833 292.833,195.167 287.5,194.5C 287.244,192.224 285.91,191.057 283.5,191C 276.797,190.236 270.13,189.236 263.5,188C 266.146,187.503 268.813,187.336 271.5,187.5C 271.5,186.167 271.5,184.833 271.5,183.5C 267.738,185.255 263.738,186.255 259.5,186.5C 255.049,184.892 250.382,184.225 245.5,184.5C 242.67,184.037 240.003,183.371 237.5,182.5C 236.713,180.896 235.38,180.229 233.5,180.5C 233.335,177.15 233.502,173.817 234,170.5C 237.933,168.522 242.1,168.022 246.5,169C 254.082,170.93 261.749,172.43 269.5,173.5 Z"/></g>
<g><path style="opacity:1" fill="#2088c1" d="M 222.5,162.5 C 222.833,162.5 223.167,162.5 223.5,162.5C 228.591,166.079 230.591,171.079 229.5,177.5C 229.586,178.496 229.252,179.329 228.5,180C 225.5,181 222.5,182 219.5,183C 218.177,183.816 217.511,184.983 217.5,186.5C 216.549,185.081 216.216,183.415 216.5,181.5C 222.588,180.99 222.922,179.323 217.5,176.5C 217.833,175.5 218.5,174.833 219.5,174.5C 221.477,177.147 224.144,178.481 227.5,178.5C 227.17,175.891 225.67,174.224 223,173.5C 222.349,171.765 222.515,170.098 223.5,168.5C 218.326,166.73 218.659,165.563 224.5,165C 223.244,164.583 222.577,163.75 222.5,162.5 Z"/></g>
<g><path style="opacity:1" fill="#3a8fbd" d="M 326.5,173.5 C 321.293,176.592 315.627,178.926 309.5,180.5C 308.338,185.467 308.171,190.467 309,195.5C 311.719,196.444 314.552,196.777 317.5,196.5C 314.732,197.867 311.732,198.867 308.5,199.5C 307.336,192.858 307.169,186.192 308,179.5C 314.018,177.076 320.185,175.076 326.5,173.5 Z"/></g>
<g><path style="opacity:1" fill="#3892be" d="M 217.5,186.5 C 218.978,186.238 220.311,186.571 221.5,187.5C 220.139,189.028 218.972,190.695 218,192.5C 217.501,197.489 217.334,202.489 217.5,207.5C 216.793,201.964 216.126,196.298 215.5,190.5C 216.853,189.476 217.52,188.143 217.5,186.5 Z"/></g>
<g><path style="opacity:1" fill="#e0f9fe" d="M 448.5,153.5 C 449.117,153.611 449.617,153.944 450,154.5C 450.183,169.211 450.683,183.878 451.5,198.5C 450.675,199.386 449.675,199.719 448.5,199.5C 448.663,201.857 448.497,204.19 448,206.5C 447.617,207.056 447.117,207.389 446.5,207.5C 446.5,205.5 446.5,203.5 446.5,201.5C 448.051,197.1 448.884,192.434 449,187.5C 449.743,176.14 449.577,164.807 448.5,153.5 Z"/></g>
<g><path style="opacity:1" fill="#caeef8" d="M 226.5,191.5 C 226.917,190.876 227.584,190.543 228.5,190.5C 233.065,191.125 237.065,192.791 240.5,195.5C 235.891,193.964 231.224,192.63 226.5,191.5 Z"/></g>
<g><path style="opacity:1" fill="#2e8bbf" d="M 287.5,194.5 C 277.442,192.819 267.442,190.819 257.5,188.5C 253.5,187.167 249.5,185.833 245.5,184.5C 250.382,184.225 255.049,184.892 259.5,186.5C 263.738,186.255 267.738,185.255 271.5,183.5C 271.5,184.833 271.5,186.167 271.5,187.5C 268.813,187.336 266.146,187.503 263.5,188C 270.13,189.236 276.797,190.236 283.5,191C 285.91,191.057 287.244,192.224 287.5,194.5 Z"/></g>
<g><path style="opacity:1" fill="#2a86b6" d="M 226.5,191.5 C 231.224,192.63 235.891,193.964 240.5,195.5C 241.167,195.5 241.5,195.833 241.5,196.5C 236.853,195.509 232.186,194.509 227.5,193.5C 226.558,193.608 225.725,193.941 225,194.5C 224.036,200.676 224.536,206.676 226.5,212.5C 223.224,209.685 221.891,206.019 222.5,201.5C 221.773,197.223 223.107,193.889 226.5,191.5 Z"/></g>
<g><path style="opacity:1" fill="#1786c6" d="M 241.5,196.5 C 254.279,199.861 266.945,203.527 279.5,207.5C 281.22,208.864 283.22,209.864 285.5,210.5C 286.496,216.798 286.83,223.132 286.5,229.5C 281.4,228.975 276.4,227.975 271.5,226.5C 258.008,222.209 244.341,218.376 230.5,215C 228.68,214.8 227.347,213.966 226.5,212.5C 224.536,206.676 224.036,200.676 225,194.5C 225.725,193.941 226.558,193.608 227.5,193.5C 232.186,194.509 236.853,195.509 241.5,196.5 Z"/></g>
<g><path style="opacity:1" fill="#3288b8" d="M 283.5,176.5 C 290.549,177.175 297.549,178.175 304.5,179.5C 304.5,185.833 304.5,192.167 304.5,198.5C 298.389,198.554 292.722,197.221 287.5,194.5C 292.833,195.167 298.167,195.833 303.5,196.5C 302.658,191.213 302.324,185.88 302.5,180.5C 295.811,180.37 289.477,179.036 283.5,176.5 Z"/></g>
<g><path style="opacity:1" fill="#1c87c3" d="M 363.5,195.5 C 362.044,201.031 361.044,206.697 360.5,212.5C 350.616,214.801 340.949,217.467 331.5,220.5C 330.167,220.5 328.833,220.5 327.5,220.5C 328.635,218.787 330.302,218.12 332.5,218.5C 332.5,217.5 332.5,216.5 332.5,215.5C 338.362,216.805 340.862,214.472 340,208.5C 341.699,207.594 343.533,207.261 345.5,207.5C 345.67,206.178 345.337,205.011 344.5,204C 342.782,203.654 341.115,203.154 339.5,202.5C 337.174,207.106 333.507,208.606 328.5,207C 332.567,205.091 332.234,204.258 327.5,204.5C 324.824,204.837 322.157,205.17 319.5,205.5C 333.843,201.345 348.51,198.011 363.5,195.5 Z"/></g>
<g><path style="opacity:1" fill="#0f86c9" d="M 327.5,220.5 C 327.167,220.5 326.833,220.5 326.5,220.5C 324.143,220.663 321.81,220.497 319.5,220C 321.037,218.89 321.703,217.39 321.5,215.5C 323.143,215.48 324.476,216.147 325.5,217.5C 326.386,216.675 326.719,215.675 326.5,214.5C 325.5,214.5 324.5,214.5 323.5,214.5C 323.5,212.5 323.5,210.5 323.5,208.5C 322.167,208.5 320.833,208.5 319.5,208.5C 319.5,207.5 319.5,206.5 319.5,205.5C 322.157,205.17 324.824,204.837 327.5,204.5C 332.234,204.258 332.567,205.091 328.5,207C 333.507,208.606 337.174,207.106 339.5,202.5C 341.115,203.154 342.782,203.654 344.5,204C 345.337,205.011 345.67,206.178 345.5,207.5C 343.533,207.261 341.699,207.594 340,208.5C 340.862,214.472 338.362,216.805 332.5,215.5C 332.5,216.5 332.5,217.5 332.5,218.5C 330.302,218.12 328.635,218.787 327.5,220.5 Z"/></g>
<g><path style="opacity:1" fill="#2088c2" d="M 319.5,205.5 C 319.5,206.5 319.5,207.5 319.5,208.5C 320.833,208.5 322.167,208.5 323.5,208.5C 323.5,210.5 323.5,212.5 323.5,214.5C 324.5,214.5 325.5,214.5 326.5,214.5C 326.719,215.675 326.386,216.675 325.5,217.5C 324.476,216.147 323.143,215.48 321.5,215.5C 321.703,217.39 321.037,218.89 319.5,220C 321.81,220.497 324.143,220.663 326.5,220.5C 319.141,223.279 311.474,225.279 303.5,226.5C 301.5,226.5 299.5,226.5 297.5,226.5C 297.918,225.778 298.584,225.278 299.5,225C 298.833,224.667 298.167,224.333 297.5,224C 302.155,223.501 306.821,223.334 311.5,223.5C 311.321,221.046 311.987,218.879 313.5,217C 310.229,212.562 305.729,210.395 300,210.5C 296.833,210.901 293.666,211.234 290.5,211.5C 290.5,211.167 290.5,210.833 290.5,210.5C 297.244,208.902 303.911,207.568 310.5,206.5C 313.455,205.841 316.455,205.508 319.5,205.5 Z"/></g>
<g><path style="opacity:1" fill="#d8f4f9" d="M 363.5,195.5 C 364.833,195.5 366.167,195.5 367.5,195.5C 365.667,200.608 365.001,205.942 365.5,211.5C 368.542,211.733 371.208,212.733 373.5,214.5C 370.797,214.045 368.13,213.378 365.5,212.5C 360.002,213.833 354.669,215.666 349.5,218C 343.411,218.375 337.411,219.208 331.5,220.5C 340.949,217.467 350.616,214.801 360.5,212.5C 361.044,206.697 362.044,201.031 363.5,195.5 Z"/></g>
<g><path style="opacity:1" fill="#2687ba" d="M 374.5,189.5 C 375.573,190.251 375.74,191.251 375,192.5C 373.172,194.081 371.172,195.415 369,196.5C 364.577,203.267 366.077,208.1 373.5,211C 374.823,211.816 375.489,212.983 375.5,214.5C 374.833,214.5 374.167,214.5 373.5,214.5C 371.208,212.733 368.542,211.733 365.5,211.5C 365.001,205.942 365.667,200.608 367.5,195.5C 370.92,194.643 373.254,192.643 374.5,189.5 Z"/></g>
<g><path style="opacity:1" fill="#1086c8" d="M 297.5,226.5 C 295.444,227.216 293.277,227.883 291,228.5C 290.501,222.843 290.334,217.176 290.5,211.5C 293.666,211.234 296.833,210.901 300,210.5C 305.729,210.395 310.229,212.562 313.5,217C 311.987,218.879 311.321,221.046 311.5,223.5C 306.821,223.334 302.155,223.501 297.5,224C 298.167,224.333 298.833,224.667 299.5,225C 298.584,225.278 297.918,225.778 297.5,226.5 Z"/></g>
<g><path style="opacity:1" fill="#e2fbfd" d="M 310.5,206.5 C 303.911,207.568 297.244,208.902 290.5,210.5C 289.509,216.979 289.176,223.646 289.5,230.5C 282.794,231.257 276.794,229.923 271.5,226.5C 276.4,227.975 281.4,228.975 286.5,229.5C 286.83,223.132 286.496,216.798 285.5,210.5C 283.22,209.864 281.22,208.864 279.5,207.5C 281.807,207.986 283.973,207.986 286,207.5C 286.804,208.804 287.971,209.471 289.5,209.5C 296.281,207.125 303.281,206.125 310.5,206.5 Z"/></g>
<g><path style="opacity:1" fill="#6fb7d4" d="M 361.5,220.5 C 360.71,221.401 359.71,222.068 358.5,222.5C 357.167,222.5 355.833,222.5 354.5,222.5C 356.599,221.388 358.933,220.721 361.5,220.5 Z"/></g>
<g><path style="opacity:1" fill="#d5f5fb" d="M 352.5,222.5 C 344.413,225.023 336.079,227.023 327.5,228.5C 329.831,226.915 332.497,225.749 335.5,225C 341.193,224.144 346.859,223.31 352.5,222.5 Z"/></g>
<g><path style="opacity:1" fill="#1a86bf" d="M 352.5,222.5 C 353.167,222.5 353.833,222.5 354.5,222.5C 355.833,222.5 357.167,222.5 358.5,222.5C 356.438,223.776 354.104,224.61 351.5,225C 356.833,225.667 356.833,226.333 351.5,227C 347.185,230.922 342.018,232.755 336,232.5C 333.245,231.595 330.412,230.928 327.5,230.5C 324.824,230.837 322.157,231.17 319.5,231.5C 321.979,230.205 324.646,229.205 327.5,228.5C 336.079,227.023 344.413,225.023 352.5,222.5 Z"/></g>
<g><path style="opacity:1" fill="#4d9bc6" d="M 290.5,210.5 C 290.5,210.833 290.5,211.167 290.5,211.5C 290.334,217.176 290.501,222.843 291,228.5C 293.277,227.883 295.444,227.216 297.5,226.5C 299.5,226.5 301.5,226.5 303.5,226.5C 298.991,227.998 294.325,229.331 289.5,230.5C 289.176,223.646 289.509,216.979 290.5,210.5 Z"/></g>
<g><path style="opacity:1" fill="#1d86c0" d="M 446.5,201.5 C 446.5,203.5 446.5,205.5 446.5,207.5C 443.535,217.557 440.035,227.557 436,237.5C 433.13,244.51 429.296,250.844 424.5,256.5C 424.318,254.409 424.652,252.409 425.5,250.5C 421.848,247.824 420.514,244.158 421.5,239.5C 422.833,239.5 424.167,239.5 425.5,239.5C 425.5,238.167 425.5,236.833 425.5,235.5C 427.857,235.663 430.19,235.497 432.5,235C 433.308,233.294 434.641,232.461 436.5,232.5C 440.57,222.451 443.904,212.118 446.5,201.5 Z"/></g>
<g><path style="opacity:1" fill="#2289b9" d="M 187.5,273.5 C 183.82,269.817 180.486,265.817 177.5,261.5C 177.56,260.957 177.893,260.624 178.5,260.5C 179.9,264.2 182.567,265.866 186.5,265.5C 187.092,268.127 187.425,270.794 187.5,273.5 Z"/></g>
<g><path style="opacity:1" fill="#1a86c3" d="M 405.5,280.5 C 396.253,290.417 385.586,298.417 373.5,304.5C 374.828,302.281 376.828,300.948 379.5,300.5C 378.769,298.401 378.769,296.401 379.5,294.5C 380.719,295.263 381.719,296.263 382.5,297.5C 383.308,297.192 383.975,296.692 384.5,296C 382.968,295.3 381.968,294.134 381.5,292.5C 384.167,291.167 384.167,289.833 381.5,288.5C 383.006,285.526 384.672,285.193 386.5,287.5C 388.876,285.373 389.876,282.707 389.5,279.5C 391.89,279.145 394.223,278.478 396.5,277.5C 399.377,278.767 402.377,279.767 405.5,280.5 Z"/></g>
<g><path style="opacity:1" fill="#298bbc" d="M 228.5,306.5 C 234.253,305.672 238.586,307.672 241.5,312.5C 236.738,311.284 232.405,309.284 228.5,306.5 Z"/></g>
<g><path style="opacity:1" fill="#dbf6fb" d="M 359.5,312.5 C 359.586,313.496 359.252,314.329 358.5,315C 346.048,320.058 333.048,322.892 319.5,323.5C 323.539,322.684 327.539,321.684 331.5,320.5C 341.13,318.845 350.463,316.179 359.5,312.5 Z"/></g>
<g><path style="opacity:1" fill="#2985b8" d="M 254.5,317.5 C 262.844,318.668 271.177,320.001 279.5,321.5C 292.5,322.833 305.5,322.833 318.5,321.5C 318.808,320.692 319.308,320.025 320,319.5C 323.73,320.46 327.563,320.793 331.5,320.5C 327.539,321.684 323.539,322.684 319.5,323.5C 316.615,323.194 313.948,323.527 311.5,324.5C 301.476,324.666 291.476,324.332 281.5,323.5C 272.127,322.666 263.127,320.666 254.5,317.5 Z"/></g>
<g><path style="opacity:1" fill="#c5f5fc" d="M 281.5,323.5 C 291.476,324.332 301.476,324.666 311.5,324.5C 303.01,325.657 294.343,325.824 285.5,325C 283.942,324.79 282.609,324.29 281.5,323.5 Z"/></g>
<g><path style="opacity:1" fill="#daf8f2" d="M 81.5,370.5 C 66.881,366.773 52.881,368.106 39.5,374.5C 39.4142,373.504 39.7476,372.671 40.5,372C 44.5728,371.093 48.2395,369.426 51.5,367C 58.5,366.333 65.5,366.333 72.5,367C 76.0329,367.371 79.0329,368.537 81.5,370.5 Z"/></g>
<g><path style="opacity:1" fill="#d36a86" d="M 201.5,372.5 C 194.574,371.148 187.574,370.148 180.5,369.5C 174.071,370.037 167.738,371.037 161.5,372.5C 174.82,365.835 188.153,365.835 201.5,372.5 Z"/></g>
<g><path style="opacity:1" fill="#e9cb95" d="M 423.5,368.5 C 417.155,368.653 410.822,368.986 404.5,369.5C 408.239,368.078 412.239,367.411 416.5,367.5C 419.025,367.503 421.359,367.837 423.5,368.5 Z"/></g>
<g><path style="opacity:1" fill="#666666" d="M 524.5,368.5 C 553.189,365.914 572.689,377.914 583,404.5C 588.339,436.139 575.839,456.973 545.5,467C 524.328,470.944 507.162,464.444 494,447.5C 478.397,421.421 481.897,398.254 504.5,378C 510.601,373.448 517.268,370.281 524.5,368.5 Z"/></g>
<g><path style="opacity:1" fill="#1ea076" d="M 81.5,370.5 C 91.2555,374.917 99.5889,381.25 106.5,389.5C 112.613,399.957 115.28,411.29 114.5,423.5C 110.026,447.973 95.693,462.973 71.5,468.5C 51.7686,469.626 35.7686,462.626 23.5,447.5C 20.8728,442.582 18.5395,437.582 16.5,432.5C 15.1084,426.252 14.4418,419.918 14.5,413.5C 16.8438,396.521 25.1771,383.521 39.5,374.5C 52.881,368.106 66.881,366.773 81.5,370.5 Z"/></g>
<g><path style="opacity:1" fill="#6fbdc6" d="M 288.5,368.5 C 310.171,365.602 327.671,372.602 341,389.5C 354.871,414.414 351.704,436.914 331.5,457C 318.34,466.622 303.673,469.955 287.5,467C 259.604,457.065 247.104,437.232 250,407.5C 255.683,387.318 268.516,374.318 288.5,368.5 Z"/></g>
<g><path style="opacity:1" fill="#d35d7c" d="M 161.5,372.5 C 161.297,374.044 160.63,375.378 159.5,376.5C 156.764,378.471 153.764,379.971 150.5,381C 148.229,383.782 145.563,385.949 142.5,387.5C 147.553,380.816 153.886,375.816 161.5,372.5 Z"/></g>
<g><path style="opacity:1" fill="#d8627f" d="M 217.5,383.5 C 231.533,397.059 235.533,413.059 229.5,431.5C 230.538,423.194 230.705,414.861 230,406.5C 228.285,404.065 227.118,401.398 226.5,398.5C 225.178,398.33 224.011,398.663 223,399.5C 222.508,398.451 222.674,397.451 223.5,396.5C 222.311,395.571 220.978,395.238 219.5,395.5C 219.665,393.173 220.331,391.007 221.5,389C 219.536,387.549 218.203,385.716 217.5,383.5 Z"/></g>
<g><path style="opacity:1" fill="#defbf4" d="M 106.5,389.5 C 107.496,389.414 108.329,389.748 109,390.5C 114.803,400.972 116.636,411.972 114.5,423.5C 115.28,411.29 112.613,399.957 106.5,389.5 Z"/></g>
<g><path style="opacity:1" fill="#bdede1" d="M 73.5,397.5 C 64.2124,398.937 54.8791,399.937 45.5,400.5C 53.643,398.866 61.9764,397.533 70.5,396.5C 71.7261,396.52 72.7261,396.853 73.5,397.5 Z"/></g>
<g><path style="opacity:1" fill="#f6f6f6" d="M 558.5,406.5 C 557.024,404.568 555.357,404.235 553.5,405.5C 546.828,406.835 540.161,408.168 533.5,409.5C 532.833,409.5 532.167,409.5 531.5,409.5C 524.621,407.096 517.621,405.096 510.5,403.5C 510.5,402.833 510.167,402.5 509.5,402.5C 509.611,401.883 509.944,401.383 510.5,401C 520.825,399.418 531.159,397.918 541.5,396.5C 548.037,398.214 554.371,400.38 560.5,403C 559.177,403.816 558.511,404.983 558.5,406.5 Z"/></g>
<g><path style="opacity:1" fill="#f9fdfd" d="M 73.5,397.5 C 74.1667,397.5 74.8333,397.5 75.5,397.5C 75.8039,398.15 76.1373,398.817 76.5,399.5C 78.5,400.167 80.5,400.833 82.5,401.5C 84.1667,403.167 83.8333,404.167 81.5,404.5C 71.1965,407.427 60.8632,407.76 50.5,405.5C 48.0347,405.233 45.7014,404.566 43.5,403.5C 43.7822,402.222 44.4489,401.222 45.5,400.5C 54.8791,399.937 64.2124,398.937 73.5,397.5 Z"/></g>
<g><path style="opacity:1" fill="#fbfefd" d="M 308.5,397.5 C 309.791,397.263 310.791,397.596 311.5,398.5C 313.958,400.713 316.958,401.879 320.5,402C 319.833,402.333 319.167,402.667 318.5,403C 319.598,403.77 319.598,404.603 318.5,405.5C 312.797,406.178 307.131,407.178 301.5,408.5C 294.896,407.612 288.562,405.779 282.5,403C 282.957,402.586 283.291,402.086 283.5,401.5C 292.026,400.876 300.359,399.543 308.5,397.5 Z"/></g>
<g><path style="opacity:1" fill="#2a9d77" d="M 43.5,403.5 C 45.7014,404.566 48.0347,405.233 50.5,405.5C 54.0314,406.975 57.698,408.308 61.5,409.5C 61.5,411.5 61.5,413.5 61.5,415.5C 54.278,414.562 47.4446,412.562 41,409.5C 40.5045,407.527 40.3379,405.527 40.5,403.5C 41.5,403.5 42.5,403.5 43.5,403.5 Z"/></g>
<g><path style="opacity:1" fill="#e1faf6" d="M 75.5,397.5 C 80.6906,398.879 85.6906,400.712 90.5,403C 89.6195,403.708 88.9528,404.542 88.5,405.5C 88.1667,405.5 87.8333,405.5 87.5,405.5C 87.44,404.957 87.1067,404.624 86.5,404.5C 78.8108,406.249 71.1441,407.916 63.5,409.5C 62.8333,409.5 62.1667,409.5 61.5,409.5C 57.698,408.308 54.0314,406.975 50.5,405.5C 60.8632,407.76 71.1965,407.427 81.5,404.5C 83.8333,404.167 84.1667,403.167 82.5,401.5C 80.5,400.833 78.5,400.167 76.5,399.5C 76.1373,398.817 75.8039,398.15 75.5,397.5 Z"/></g>
<g><path style="opacity:1" fill="#82eac9" d="M 87.5,405.5 C 87.8333,405.5 88.1667,405.5 88.5,405.5C 88.5,406.833 88.5,408.167 88.5,409.5C 87.8333,409.833 87.1667,410.167 86.5,410.5C 86.2155,408.585 86.5489,406.919 87.5,405.5 Z"/></g>
<g><path style="opacity:1" fill="#666666" d="M 510.5,403.5 C 517.621,405.096 524.621,407.096 531.5,409.5C 531.795,411.735 531.461,413.735 530.5,415.5C 524.115,413.856 517.782,412.023 511.5,410C 510.577,407.959 510.244,405.792 510.5,403.5 Z"/></g>
<g><path style="opacity:1" fill="#b2b2b2" d="M 553.5,405.5 C 555.357,404.235 557.024,404.568 558.5,406.5C 558.5,407.5 558.5,408.5 558.5,409.5C 557.833,409.833 557.167,410.167 556.5,410.5C 556.5,408.833 556.5,407.167 556.5,405.5C 555.5,405.5 554.5,405.5 553.5,405.5 Z"/></g>
<g><path style="opacity:1" fill="#676767" d="M 553.5,405.5 C 554.5,405.5 555.5,405.5 556.5,405.5C 556.5,407.167 556.5,408.833 556.5,410.5C 549.181,412.16 541.848,413.827 534.5,415.5C 533.539,413.735 533.205,411.735 533.5,409.5C 540.161,408.168 546.828,406.835 553.5,405.5 Z"/></g>
<g><path style="opacity:1" fill="#fde0e9" d="M 134.5,402.5 C 134.5,403.167 134.5,403.833 134.5,404.5C 131.915,413.823 131.915,423.156 134.5,432.5C 135.167,434.833 135.833,437.167 136.5,439.5C 134.52,438.152 133.353,436.152 133,433.5C 130.772,425.975 130.105,418.308 131,410.5C 131.493,407.325 132.66,404.659 134.5,402.5 Z"/></g>
<g><path style="opacity:1" fill="#75bcc2" d="M 318.5,405.5 C 319.5,405.5 320.5,405.5 321.5,405.5C 321.5,407.167 321.5,408.833 321.5,410.5C 319.901,410.232 318.568,410.566 317.5,411.5C 311.44,412.515 305.44,413.848 299.5,415.5C 298.534,413.604 298.201,411.604 298.5,409.5C 299.791,409.737 300.791,409.404 301.5,408.5C 307.131,407.178 312.797,406.178 318.5,405.5 Z"/></g>
<g><path style="opacity:1" fill="#299f78" d="M 87.5,405.5 C 86.5489,406.919 86.2155,408.585 86.5,410.5C 78.8731,412.323 71.2064,413.99 63.5,415.5C 63.5,413.5 63.5,411.5 63.5,409.5C 71.1441,407.916 78.8108,406.249 86.5,404.5C 87.1067,404.624 87.44,404.957 87.5,405.5 Z"/></g>
<g><path style="opacity:1" fill="#e3a94c" d="M 423.5,368.5 C 440.585,371.247 453.251,380.247 461.5,395.5C 464.305,405.953 465.639,416.62 465.5,427.5C 464.751,433.176 463.084,438.509 460.5,443.5C 458.1,445.296 456.433,447.63 455.5,450.5C 452.5,452.833 449.833,455.5 447.5,458.5C 444.484,459.343 441.817,460.843 439.5,463C 438.207,463.49 436.873,463.657 435.5,463.5C 431.662,464.692 427.828,464.692 424,463.5C 422.174,464.01 422.007,464.844 423.5,466C 420.667,466.167 417.833,466.333 415,466.5C 409.941,465.354 404.107,464.354 397.5,463.5C 393.259,462.046 389.259,460.046 385.5,457.5C 381.805,453.474 378.138,449.474 374.5,445.5C 373.361,442.082 372.028,438.749 370.5,435.5C 368.356,425.23 368.022,414.897 369.5,404.5C 374.795,386.538 386.461,374.872 404.5,369.5C 410.822,368.986 417.155,368.653 423.5,368.5 Z"/></g>
<g><path style="opacity:1" fill="#dea950" d="M 403.5,405.5 C 403.5,405.833 403.5,406.167 403.5,406.5C 406.492,407.848 409.492,409.348 412.5,411C 408.572,412.716 404.572,412.883 400.5,411.5C 394.671,412 392.337,409.334 393.5,403.5C 396.833,404.167 400.167,404.833 403.5,405.5 Z"/></g>
<g><path style="opacity:1" fill="#f9edca" d="M 406.5,399.5 C 406.5,399.833 406.5,400.167 406.5,400.5C 403.278,400.108 400.278,400.608 397.5,402C 399.618,403.082 401.618,404.249 403.5,405.5C 400.167,404.833 396.833,404.167 393.5,403.5C 392.337,409.334 394.671,412 400.5,411.5C 401.167,412.167 401.833,412.833 402.5,413.5C 400.304,413.41 398.137,413.077 396,412.5C 395.167,412.833 394.333,413.167 393.5,413.5C 394.949,414.172 396.282,414.839 397.5,415.5C 395.379,415.675 393.379,415.341 391.5,414.5C 391.389,413.883 391.056,413.383 390.5,413C 391.293,409.589 391.793,406.089 392,402.5C 396.432,399.835 401.266,398.835 406.5,399.5 Z"/></g>
<g><path style="opacity:1" fill="#fdfcf9" d="M 431.5,405.5 C 431.082,406.222 430.416,406.722 429.5,407C 425.809,407.42 422.142,407.92 418.5,408.5C 413.686,406.973 408.686,405.973 403.5,405.5C 401.618,404.249 399.618,403.082 397.5,402C 400.278,400.608 403.278,400.108 406.5,400.5C 413.138,399.384 419.804,398.884 426.5,399C 429.044,400.092 431.711,400.759 434.5,401C 433.359,401.741 433.359,402.575 434.5,403.5C 433.398,404.176 432.398,404.842 431.5,405.5 Z"/></g>
<g><path style="opacity:1" fill="#ededed" d="M 509.5,402.5 C 510.167,402.5 510.5,402.833 510.5,403.5C 510.244,405.792 510.577,407.959 511.5,410C 517.782,412.023 524.115,413.856 530.5,415.5C 531.833,416.833 533.167,416.833 534.5,415.5C 541.848,413.827 549.181,412.16 556.5,410.5C 557.167,410.167 557.833,409.833 558.5,409.5C 561.595,410.119 561.929,411.119 559.5,412.5C 560.434,416.37 560.434,420.037 559.5,423.5C 556.907,425.071 555.907,427.404 556.5,430.5C 558.103,430.312 559.437,430.812 560.5,432C 550.282,434.971 539.948,437.471 529.5,439.5C 522.01,437.497 514.844,434.83 508,431.5C 507.501,427.848 507.335,424.182 507.5,420.5C 508.5,420.5 509.5,420.5 510.5,420.5C 510.945,417.635 510.278,415.135 508.5,413C 509.308,412.692 509.975,412.192 510.5,411.5C 508.312,408.705 507.979,405.705 509.5,402.5 Z"/></g>
<g><path style="opacity:1" fill="#dbae67" d="M 403.5,406.5 C 407.015,406.879 410.348,407.879 413.5,409.5C 414.466,411.396 414.799,413.396 414.5,415.5C 410.462,415.042 406.462,414.376 402.5,413.5C 401.833,412.833 401.167,412.167 400.5,411.5C 404.572,412.883 408.572,412.716 412.5,411C 409.492,409.348 406.492,407.848 403.5,406.5 Z"/></g>
<g><path style="opacity:1" fill="#c4c4c4" d="M 531.5,409.5 C 532.167,409.5 532.833,409.5 533.5,409.5C 533.205,411.735 533.539,413.735 534.5,415.5C 533.167,416.833 531.833,416.833 530.5,415.5C 531.461,413.735 531.795,411.735 531.5,409.5 Z"/></g>
<g><path style="opacity:1" fill="#e0f9f5" d="M 45.5,400.5 C 44.4489,401.222 43.7822,402.222 43.5,403.5C 42.5,403.5 41.5,403.5 40.5,403.5C 40.3379,405.527 40.5045,407.527 41,409.5C 47.4446,412.562 54.278,414.562 61.5,415.5C 62.1667,415.5 62.8333,415.5 63.5,415.5C 71.2064,413.99 78.8731,412.323 86.5,410.5C 87.1667,410.167 87.8333,409.833 88.5,409.5C 89.4734,409.987 90.4734,410.487 91.5,411C 90.244,411.417 89.5774,412.25 89.5,413.5C 89.6716,414.492 89.3382,415.158 88.5,415.5C 88.189,414.522 87.5223,413.855 86.5,413.5C 80.0633,415.221 73.73,417.221 67.5,419.5C 66.8333,419.5 66.1667,419.5 65.5,419.5C 57.8333,418.167 50.1667,416.833 42.5,415.5C 41.8333,415.5 41.1667,415.5 40.5,415.5C 40.0472,414.542 39.3805,413.708 38.5,413C 38.9686,409.92 39.1353,406.754 39,403.5C 40.5088,401.081 42.6755,400.081 45.5,400.5 Z"/></g>
<g><path style="opacity:1" fill="#96dcc7" d="M 61.5,409.5 C 62.1667,409.5 62.8333,409.5 63.5,409.5C 63.5,411.5 63.5,413.5 63.5,415.5C 62.8333,415.5 62.1667,415.5 61.5,415.5C 61.5,413.5 61.5,411.5 61.5,409.5 Z"/></g>
<g><path style="opacity:1" fill="#e7fafa" d="M 308.5,397.5 C 300.359,399.543 292.026,400.876 283.5,401.5C 283.291,402.086 282.957,402.586 282.5,403C 288.562,405.779 294.896,407.612 301.5,408.5C 300.791,409.404 299.791,409.737 298.5,409.5C 298.201,411.604 298.534,413.604 299.5,415.5C 305.44,413.848 311.44,412.515 317.5,411.5C 319.199,411.34 320.866,411.506 322.5,412C 321.944,412.383 321.611,412.883 321.5,413.5C 315.45,415.295 309.45,417.295 303.5,419.5C 302.534,421.396 302.201,423.396 302.5,425.5C 308.911,424.456 315.245,423.123 321.5,421.5C 322.043,421.56 322.376,421.893 322.5,422.5C 321.23,423.288 320.23,424.288 319.5,425.5C 312.155,426.97 304.822,428.303 297.5,429.5C 296.5,429.5 295.5,429.5 294.5,429.5C 287.73,427.808 281.064,425.808 274.5,423.5C 274.369,422.761 274.536,422.094 275,421.5C 276.299,421.966 277.799,421.966 279.5,421.5C 286.471,422.993 293.471,424.326 300.5,425.5C 300.5,423.5 300.5,421.5 300.5,419.5C 293.169,418.168 285.836,416.834 278.5,415.5C 277.652,414.375 276.652,414.375 275.5,415.5C 274.909,414.849 274.243,414.182 273.5,413.5C 274.602,411.039 274.602,408.539 273.5,406C 273.615,404.105 274.282,402.438 275.5,401C 286.601,398.733 297.601,397.567 308.5,397.5 Z"/></g>
<g><path style="opacity:1" fill="#79bdc2" d="M 275.5,403.5 C 282.338,404.89 289.004,406.89 295.5,409.5C 296.466,411.396 296.799,413.396 296.5,415.5C 290.114,414.318 283.781,412.818 277.5,411C 275.722,408.865 275.055,406.365 275.5,403.5 Z"/></g>
<g><path style="opacity:1" fill="#dfb168" d="M 461.5,395.5 C 463.847,398.68 465.347,402.347 466,406.5C 467.217,412.101 467.717,417.768 467.5,423.5C 466.833,424.833 466.167,426.167 465.5,427.5C 465.639,416.62 464.305,405.953 461.5,395.5 Z"/></g>
<g><path style="opacity:1" fill="#8ae5c8" d="M 40.5,415.5 C 41.1667,415.5 41.8333,415.5 42.5,415.5C 42.5,417.167 42.5,418.833 42.5,420.5C 41.8333,420.5 41.1667,420.5 40.5,420.5C 40.5,418.833 40.5,417.167 40.5,415.5 Z"/></g>
<g><path style="opacity:1" fill="#cb5b77" d="M 134.5,404.5 C 133.261,413.837 133.261,423.171 134.5,432.5C 131.915,423.156 131.915,413.823 134.5,404.5 Z"/></g>
<g><path style="opacity:1" fill="#656565" d="M 554.5,413.5 C 555.833,413.5 557.167,413.5 558.5,413.5C 558.756,415.792 558.423,417.959 557.5,420C 551.021,422.549 544.354,424.382 537.5,425.5C 537.201,423.396 537.534,421.396 538.5,419.5C 544.131,418.006 549.464,416.006 554.5,413.5 Z"/></g>
<g><path style="opacity:1" fill="#73bbc2" d="M 321.5,413.5 C 324.004,415.962 324.004,418.629 321.5,421.5C 315.245,423.123 308.911,424.456 302.5,425.5C 302.201,423.396 302.534,421.396 303.5,419.5C 309.45,417.295 315.45,415.295 321.5,413.5 Z"/></g>
<g><path style="opacity:1" fill="#656565" d="M 535.5,420.5 C 535.923,422.781 535.256,424.448 533.5,425.5C 526.92,423.689 520.253,422.189 513.5,421C 512.594,419.301 512.261,417.467 512.5,415.5C 520.383,416.724 528.05,418.391 535.5,420.5 Z"/></g>
<g><path style="opacity:1" fill="#269d76" d="M 42.5,415.5 C 50.1667,416.833 57.8333,418.167 65.5,419.5C 65.7947,421.735 65.4614,423.735 64.5,425.5C 57.0525,424.344 49.7192,422.677 42.5,420.5C 42.5,418.833 42.5,417.167 42.5,415.5 Z"/></g>
<g><path style="opacity:1" fill="#d9ac64" d="M 368.5,404.5 C 368.833,404.5 369.167,404.5 369.5,404.5C 368.022,414.897 368.356,425.23 370.5,435.5C 369.379,433.046 368.546,430.379 368,427.5C 367.269,419.798 367.436,412.131 368.5,404.5 Z"/></g>
<g><path style="opacity:1" fill="#ddad5b" d="M 391.5,414.5 C 393.379,415.341 395.379,415.675 397.5,415.5C 404.376,417.342 411.376,418.675 418.5,419.5C 418.5,421.5 418.5,423.5 418.5,425.5C 412.19,424.337 405.857,423.17 399.5,422C 397.324,421.837 395.491,421.004 394,419.5C 393.617,420.056 393.117,420.389 392.5,420.5C 391.069,420.881 390.236,421.881 390,423.5C 389.503,426.146 389.336,428.813 389.5,431.5C 388.515,427.366 388.182,423.032 388.5,418.5C 392.186,418.87 393.186,417.537 391.5,414.5 Z"/></g>
<g><path style="opacity:1" fill="#defaf4" d="M 14.5,413.5 C 14.4418,419.918 15.1084,426.252 16.5,432.5C 11.8989,426.618 11.2322,420.284 14.5,413.5 Z"/></g>
<g><path style="opacity:1" fill="#a2a2a2" d="M 535.5,420.5 C 536.461,422.265 536.795,424.265 536.5,426.5C 535.209,426.737 534.209,426.404 533.5,425.5C 535.256,424.448 535.923,422.781 535.5,420.5 Z"/></g>
<g><path style="opacity:1" fill="#289f77" d="M 88.5,415.5 C 88.7135,417.144 88.3802,418.644 87.5,420C 82.1676,422.157 76.8343,423.991 71.5,425.5C 70.8333,425.5 70.1667,425.5 69.5,425.5C 67.6921,424.082 67.0254,422.082 67.5,419.5C 73.73,417.221 80.0633,415.221 86.5,413.5C 87.5223,413.855 88.189,414.522 88.5,415.5 Z"/></g>
<g><path style="opacity:1" fill="#88d1bb" d="M 65.5,419.5 C 66.1667,419.5 66.8333,419.5 67.5,419.5C 67.0254,422.082 67.6921,424.082 69.5,425.5C 67.8333,426.833 66.1667,426.833 64.5,425.5C 65.4614,423.735 65.7947,421.735 65.5,419.5 Z"/></g>
<g><path style="opacity:1" fill="#fdf5dd" d="M 442.5,420.5 C 441.935,422.42 440.935,424.087 439.5,425.5C 438.833,425.5 438.167,425.5 437.5,425.5C 432.588,425.898 427.921,426.898 423.5,428.5C 421.565,429.15 419.565,429.483 417.5,429.5C 415.833,429.5 414.167,429.5 412.5,429.5C 407.537,428.009 402.537,426.676 397.5,425.5C 397.158,424.662 396.492,424.328 395.5,424.5C 394.282,423.839 392.949,423.172 391.5,422.5C 391.863,421.817 392.196,421.15 392.5,420.5C 393.117,420.389 393.617,420.056 394,419.5C 395.491,421.004 397.324,421.837 399.5,422C 405.857,423.17 412.19,424.337 418.5,425.5C 418.5,423.5 418.5,421.5 418.5,419.5C 411.376,418.675 404.376,417.342 397.5,415.5C 396.282,414.839 394.949,414.172 393.5,413.5C 394.333,413.167 395.167,412.833 396,412.5C 398.137,413.077 400.304,413.41 402.5,413.5C 406.462,414.376 410.462,415.042 414.5,415.5C 414.799,413.396 414.466,411.396 413.5,409.5C 410.348,407.879 407.015,406.879 403.5,406.5C 403.5,406.167 403.5,405.833 403.5,405.5C 408.686,405.973 413.686,406.973 418.5,408.5C 417.791,409.404 416.791,409.737 415.5,409.5C 415.5,411.5 415.5,413.5 415.5,415.5C 423.506,413.831 431.506,412.164 439.5,410.5C 439.5,408.833 439.5,407.167 439.5,405.5C 436.833,405.5 434.167,405.5 431.5,405.5C 432.398,404.842 433.398,404.176 434.5,403.5C 433.359,402.575 433.359,401.741 434.5,401C 431.711,400.759 429.044,400.092 426.5,399C 419.804,398.884 413.138,399.384 406.5,400.5C 406.5,400.167 406.5,399.833 406.5,399.5C 412.041,398.04 417.708,397.04 423.5,396.5C 429.75,398.481 436.083,400.314 442.5,402C 443.178,407.709 443.178,413.875 442.5,420.5 Z"/></g>
<g><path style="opacity:1" fill="#e1a84c" d="M 439.5,420.5 C 435.619,421.903 431.619,422.903 427.5,423.5C 424.636,423.936 422.303,423.103 420.5,421C 426.844,419.609 433.177,418.109 439.5,416.5C 439.5,417.833 439.5,419.167 439.5,420.5 Z"/></g>
<g><path style="opacity:1" fill="#ddae63" d="M 439.5,420.5 C 439.5,419.167 439.5,417.833 439.5,416.5C 433.177,418.109 426.844,419.609 420.5,421C 422.303,423.103 424.636,423.936 427.5,423.5C 425.095,424.768 422.428,425.435 419.5,425.5C 419.201,423.396 419.534,421.396 420.5,419.5C 425.568,417.818 430.568,415.984 435.5,414C 440.667,412.5 442.5,414.333 441,419.5C 440.617,420.056 440.117,420.389 439.5,420.5 Z"/></g>
<g><path style="opacity:1" fill="#deaa57" d="M 431.5,405.5 C 434.167,405.5 436.833,405.5 439.5,405.5C 439.5,407.167 439.5,408.833 439.5,410.5C 431.506,412.164 423.506,413.831 415.5,415.5C 415.5,413.5 415.5,411.5 415.5,409.5C 416.791,409.737 417.791,409.404 418.5,408.5C 422.142,407.92 425.809,407.42 429.5,407C 430.416,406.722 431.082,406.222 431.5,405.5 Z"/></g>
<g><path style="opacity:1" fill="#df5174" d="M 201.5,372.5 C 207.935,374.608 213.269,378.275 217.5,383.5C 218.203,385.716 219.536,387.549 221.5,389C 220.331,391.007 219.665,393.173 219.5,395.5C 220.978,395.238 222.311,395.571 223.5,396.5C 222.674,397.451 222.508,398.451 223,399.5C 224.011,398.663 225.178,398.33 226.5,398.5C 227.118,401.398 228.285,404.065 230,406.5C 230.705,414.861 230.538,423.194 229.5,431.5C 223.159,452.333 209.159,464.5 187.5,468C 180.561,469.034 173.895,468.201 167.5,465.5C 164.129,463.262 160.463,461.595 156.5,460.5C 147.775,455.443 141.109,448.443 136.5,439.5C 135.833,437.167 135.167,434.833 134.5,432.5C 133.261,423.171 133.261,413.837 134.5,404.5C 134.5,403.833 134.5,403.167 134.5,402.5C 136.337,397.013 139.003,392.013 142.5,387.5C 145.563,385.949 148.229,383.782 150.5,381C 153.764,379.971 156.764,378.471 159.5,376.5C 160.63,375.378 161.297,374.044 161.5,372.5C 167.738,371.037 174.071,370.037 180.5,369.5C 187.574,370.148 194.574,371.148 201.5,372.5 Z"/></g>
<g><path style="opacity:1" fill="#fdeaf0" d="M 187.5,398.5 C 188.568,397.566 189.901,397.232 191.5,397.5C 197.326,398.831 202.992,400.664 208.5,403C 205.698,404.731 205.031,406.898 206.5,409.5C 206.918,410.222 207.584,410.722 208.5,411C 207.707,414.411 207.207,417.911 207,421.5C 206.8,423.32 205.966,424.653 204.5,425.5C 204.167,425.5 203.833,425.5 203.5,425.5C 201.265,425.205 199.265,425.539 197.5,426.5C 191.372,427.299 185.372,428.299 179.5,429.5C 178.833,429.5 178.167,429.5 177.5,429.5C 176.167,429.5 174.833,429.5 173.5,429.5C 170.05,427.792 166.383,426.459 162.5,425.5C 161.359,424.661 160.026,423.994 158.5,423.5C 157.478,423.855 156.811,424.522 156.5,425.5C 155.662,425.158 155.328,424.492 155.5,423.5C 156.179,421.332 157.179,419.332 158.5,417.5C 158.124,415.617 157.124,414.117 155.5,413C 156.428,412.612 157.095,411.945 157.5,411C 155.877,407.384 156.21,404.05 158.5,401C 162.77,399.925 167.103,399.425 171.5,399.5C 169.631,400.165 167.631,400.831 165.5,401.5C 166.025,402.192 166.692,402.692 167.5,403C 166.584,403.278 165.918,403.778 165.5,404.5C 163.236,403.781 160.903,403.448 158.5,403.5C 157.764,410.097 160.764,413.097 167.5,412.5C 171.163,414.416 175.163,415.416 179.5,415.5C 179.5,413.5 179.5,411.5 179.5,409.5C 178.209,409.737 177.209,409.404 176.5,408.5C 178.5,408.5 180.5,408.5 182.5,408.5C 180.852,410.456 180.185,412.789 180.5,415.5C 188.455,413.619 196.455,411.952 204.5,410.5C 204.662,408.473 204.495,406.473 204,404.5C 200.545,405.287 197.045,405.954 193.5,406.5C 195.732,404.805 198.399,403.638 201.5,403C 199.261,400.386 196.595,399.886 193.5,401.5C 192.667,400.5 191.833,399.5 191,398.5C 189.855,399.684 188.688,399.684 187.5,398.5 Z"/></g>
<g><path style="opacity:1" fill="#d85a7a" d="M 159.5,415.5 C 167.489,416.832 175.489,418.166 183.5,419.5C 183.5,421.5 183.5,423.5 183.5,425.5C 176.097,424.418 168.763,422.918 161.5,421C 159.808,419.599 159.141,417.766 159.5,415.5 Z"/></g>
<g><path style="opacity:1" fill="#d9597c" d="M 201.5,414.5 C 202.5,414.5 203.5,414.5 204.5,414.5C 204.5,416.5 204.5,418.5 204.5,420.5C 198.19,423.078 191.523,424.744 184.5,425.5C 184.201,423.396 184.534,421.396 185.5,419.5C 190.724,417.425 196.058,415.758 201.5,414.5 Z"/></g>
<g><path style="opacity:1" fill="#cd7084" d="M 201.5,414.5 C 206,412.837 207.5,414.503 206,419.5C 205.617,420.056 205.117,420.389 204.5,420.5C 204.5,418.5 204.5,416.5 204.5,414.5C 203.5,414.5 202.5,414.5 201.5,414.5 Z"/></g>
<g><path style="opacity:1" fill="#da597b" d="M 175.5,408.5 C 175.833,408.5 176.167,408.5 176.5,408.5C 177.209,409.404 178.209,409.737 179.5,409.5C 179.5,411.5 179.5,413.5 179.5,415.5C 175.163,415.416 171.163,414.416 167.5,412.5C 165.259,411.379 162.925,410.213 160.5,409C 159.62,407.644 159.286,406.144 159.5,404.5C 164.645,406.464 169.978,407.797 175.5,408.5 Z"/></g>
<g><path style="opacity:1" fill="#d65b79" d="M 182.5,408.5 C 186.262,408.309 189.929,407.642 193.5,406.5C 197.045,405.954 200.545,405.287 204,404.5C 204.495,406.473 204.662,408.473 204.5,410.5C 196.455,411.952 188.455,413.619 180.5,415.5C 180.185,412.789 180.852,410.456 182.5,408.5 Z"/></g>
<g><path style="opacity:1" fill="#cf6882" d="M 165.5,404.5 C 168.833,405.833 172.167,407.167 175.5,408.5C 169.978,407.797 164.645,406.464 159.5,404.5C 159.286,406.144 159.62,407.644 160.5,409C 162.925,410.213 165.259,411.379 167.5,412.5C 160.764,413.097 157.764,410.097 158.5,403.5C 160.903,403.448 163.236,403.781 165.5,404.5 Z"/></g>
<g><path style="opacity:1" fill="#fcfbfb" d="M 187.5,398.5 C 188.688,399.684 189.855,399.684 191,398.5C 191.833,399.5 192.667,400.5 193.5,401.5C 196.595,399.886 199.261,400.386 201.5,403C 198.399,403.638 195.732,404.805 193.5,406.5C 189.929,407.642 186.262,408.309 182.5,408.5C 180.5,408.5 178.5,408.5 176.5,408.5C 176.167,408.5 175.833,408.5 175.5,408.5C 172.167,407.167 168.833,405.833 165.5,404.5C 165.918,403.778 166.584,403.278 167.5,403C 166.692,402.692 166.025,402.192 165.5,401.5C 167.631,400.831 169.631,400.165 171.5,399.5C 172.167,399.5 172.833,399.5 173.5,399.5C 178.13,398.771 182.797,398.437 187.5,398.5 Z"/></g>
<g><path style="opacity:1" fill="#fad1dd" d="M 185.5,396.5 C 187.735,396.205 189.735,396.539 191.5,397.5C 189.901,397.232 188.568,397.566 187.5,398.5C 182.797,398.437 178.13,398.771 173.5,399.5C 177.399,398.068 181.399,397.068 185.5,396.5 Z"/></g>
<g><path style="opacity:1" fill="#d36a84" d="M 206.5,409.5 C 207.873,409.343 209.207,409.51 210.5,410C 209.288,416.129 207.621,422.129 205.5,428C 205.978,429.303 206.645,430.469 207.5,431.5C 206.391,431.443 205.391,431.11 204.5,430.5C 204.5,428.833 204.5,427.167 204.5,425.5C 205.966,424.653 206.8,423.32 207,421.5C 207.207,417.911 207.707,414.411 208.5,411C 207.584,410.722 206.918,410.222 206.5,409.5 Z"/></g>
<g><path style="opacity:1" fill="#d9b06b" d="M 395.5,424.5 C 396.492,424.328 397.158,424.662 397.5,425.5C 395.833,425.5 394.167,425.5 392.5,425.5C 392.343,426.873 392.51,428.207 393,429.5C 395.209,429.989 397.042,430.989 398.5,432.5C 392.6,432.934 390.266,430.267 391.5,424.5C 392.833,424.5 394.167,424.5 395.5,424.5 Z"/></g>
<g><path style="opacity:1" fill="#696969" d="M 509.5,423.5 C 516.384,425.906 523.384,427.906 530.5,429.5C 530.808,431.924 530.474,434.257 529.5,436.5C 522.924,434.687 516.424,432.687 510,430.5C 509.503,428.19 509.337,425.857 509.5,423.5 Z"/></g>
<g><path style="opacity:1" fill="#cf6b85" d="M 197.5,426.5 C 199.265,425.539 201.265,425.205 203.5,425.5C 202.699,427.042 202.366,428.708 202.5,430.5C 200.343,431.407 198.01,432.073 195.5,432.5C 196.574,430.784 198.241,429.784 200.5,429.5C 201.386,428.675 201.719,427.675 201.5,426.5C 200.167,426.5 198.833,426.5 197.5,426.5 Z"/></g>
<g><path style="opacity:1" fill="#feb4cb" d="M 203.5,425.5 C 203.833,425.5 204.167,425.5 204.5,425.5C 204.5,427.167 204.5,428.833 204.5,430.5C 203.833,430.5 203.167,430.5 202.5,430.5C 202.366,428.708 202.699,427.042 203.5,425.5 Z"/></g>
<g><path style="opacity:1" fill="#666666" d="M 550.5,425.5 C 552.167,425.5 553.833,425.5 555.5,425.5C 555.739,427.467 555.406,429.301 554.5,431C 546.869,432.435 539.369,434.269 532,436.5C 531.503,434.19 531.337,431.857 531.5,429.5C 538.102,428.954 544.435,427.621 550.5,425.5 Z"/></g>
<g><path style="opacity:1" fill="#cdf8ef" d="M 89.5,413.5 C 90.6095,416.168 90.6095,419.001 89.5,422C 85.7407,425.413 85.7407,428.747 89.5,432C 79.8282,434.435 70.1615,436.935 60.5,439.5C 52.6315,437.712 45.1315,435.045 38,431.5C 37.8333,429.667 37.6667,427.833 37.5,426C 37.5465,423.705 38.2132,421.871 39.5,420.5C 38.375,421.652 38.375,422.652 39.5,423.5C 38.6077,430.764 41.9411,434.097 49.5,433.5C 52.9065,435.074 56.5732,436.074 60.5,436.5C 60.702,434.05 60.3686,431.717 59.5,429.5C 60.5,429.5 61.5,429.5 62.5,429.5C 61.4634,431.738 61.2967,434.071 62,436.5C 69.0643,434.418 76.231,432.585 83.5,431C 85.1922,429.599 85.8588,427.766 85.5,425.5C 81.4764,426.038 77.4764,426.705 73.5,427.5C 74.6602,425.797 73.9935,425.131 71.5,425.5C 76.8343,423.991 82.1676,422.157 87.5,420C 88.3802,418.644 88.7135,417.144 88.5,415.5C 89.3382,415.158 89.6716,414.492 89.5,413.5 Z"/></g>
<g><path style="opacity:1" fill="#289d77" d="M 62.5,429.5 C 66.3837,429.576 70.0504,428.91 73.5,427.5C 77.4764,426.705 81.4764,426.038 85.5,425.5C 85.8588,427.766 85.1922,429.599 83.5,431C 76.231,432.585 69.0643,434.418 62,436.5C 61.2967,434.071 61.4634,431.738 62.5,429.5 Z"/></g>
<g><path style="opacity:1" fill="#3ca17f" d="M 39.5,423.5 C 46.1674,425.5 52.8341,427.5 59.5,429.5C 60.3686,431.717 60.702,434.05 60.5,436.5C 56.5732,436.074 52.9065,435.074 49.5,433.5C 41.9411,434.097 38.6077,430.764 39.5,423.5 Z"/></g>
<g><path style="opacity:1" fill="#1aa075" d="M 49.5,433.5 C 47.0404,432.109 44.3738,430.942 41.5,430C 40.6634,428.989 40.33,427.822 40.5,426.5C 46.7983,426.91 52.7983,428.244 58.5,430.5C 58.5,431.5 58.5,432.5 58.5,433.5C 55.5,433.5 52.5,433.5 49.5,433.5 Z"/></g>
<g><path style="opacity:1" fill="#e2fbf7" d="M 39.5,420.5 C 39.8333,420.5 40.1667,420.5 40.5,420.5C 41.1667,420.5 41.8333,420.5 42.5,420.5C 49.7192,422.677 57.0525,424.344 64.5,425.5C 66.1667,426.833 67.8333,426.833 69.5,425.5C 70.1667,425.5 70.8333,425.5 71.5,425.5C 73.9935,425.131 74.6602,425.797 73.5,427.5C 70.0504,428.91 66.3837,429.576 62.5,429.5C 61.5,429.5 60.5,429.5 59.5,429.5C 52.8341,427.5 46.1674,425.5 39.5,423.5C 38.375,422.652 38.375,421.652 39.5,420.5 Z"/></g>
<g><path style="opacity:1" fill="#cf637c" d="M 162.5,425.5 C 161.167,425.5 159.833,425.5 158.5,425.5C 158.5,427.167 158.5,428.833 158.5,430.5C 164.458,431.737 170.458,433.07 176.5,434.5C 176.5,433.167 176.5,431.833 176.5,430.5C 175.209,430.737 174.209,430.404 173.5,429.5C 174.833,429.5 176.167,429.5 177.5,429.5C 177.5,431.5 177.5,433.5 177.5,435.5C 176.5,435.5 175.5,435.5 174.5,435.5C 168.668,434.459 163.001,432.959 157.5,431C 156.594,429.301 156.261,427.467 156.5,425.5C 156.811,424.522 157.478,423.855 158.5,423.5C 160.026,423.994 161.359,424.661 162.5,425.5 Z"/></g>
<g><path style="opacity:1" fill="#dd5174" d="M 162.5,425.5 C 166.383,426.459 170.05,427.792 173.5,429.5C 174.209,430.404 175.209,430.737 176.5,430.5C 176.5,431.833 176.5,433.167 176.5,434.5C 170.458,433.07 164.458,431.737 158.5,430.5C 158.5,428.833 158.5,427.167 158.5,425.5C 159.833,425.5 161.167,425.5 162.5,425.5 Z"/></g>
<g><path style="opacity:1" fill="#fcf3da" d="M 368.5,404.5 C 367.436,412.131 367.269,419.798 368,427.5C 368.546,430.379 369.379,433.046 370.5,435.5C 372.028,438.749 373.361,442.082 374.5,445.5C 373.141,444.993 372.141,443.993 371.5,442.5C 370.391,443.59 369.391,443.59 368.5,442.5C 369.311,441.784 369.978,440.95 370.5,440C 369.15,437.536 367.984,435.036 367,432.5C 366.333,423.833 366.333,415.167 367,406.5C 367.278,405.584 367.778,404.918 368.5,404.5 Z"/></g>
<g><path style="opacity:1" fill="#eca9b8" d="M 177.5,429.5 C 178.167,429.5 178.833,429.5 179.5,429.5C 179.025,432.082 179.692,434.082 181.5,435.5C 179.167,436.833 176.833,436.833 174.5,435.5C 175.5,435.5 176.5,435.5 177.5,435.5C 177.5,433.5 177.5,431.5 177.5,429.5 Z"/></g>
<g><path style="opacity:1" fill="#d95677" d="M 197.5,426.5 C 198.833,426.5 200.167,426.5 201.5,426.5C 201.719,427.675 201.386,428.675 200.5,429.5C 198.241,429.784 196.574,430.784 195.5,432.5C 190.905,433.815 186.239,434.815 181.5,435.5C 179.692,434.082 179.025,432.082 179.5,429.5C 185.372,428.299 191.372,427.299 197.5,426.5 Z"/></g>
<g><path style="opacity:1" fill="#fde1eb" d="M 155.5,423.5 C 155.328,424.492 155.662,425.158 156.5,425.5C 156.261,427.467 156.594,429.301 157.5,431C 163.001,432.959 168.668,434.459 174.5,435.5C 176.833,436.833 179.167,436.833 181.5,435.5C 186.239,434.815 190.905,433.815 195.5,432.5C 198.01,432.073 200.343,431.407 202.5,430.5C 203.167,430.5 203.833,430.5 204.5,430.5C 205.391,431.11 206.391,431.443 207.5,431.5C 199.921,434.151 192.254,436.484 184.5,438.5C 180.155,439.726 175.822,439.726 171.5,438.5C 166.972,436.596 162.306,434.763 157.5,433C 154.819,430.093 154.152,426.926 155.5,423.5 Z"/></g>
<g><path style="opacity:1" fill="#d55876" d="M 185.5,396.5 C 181.399,397.068 177.399,398.068 173.5,399.5C 172.833,399.5 172.167,399.5 171.5,399.5C 167.103,399.425 162.77,399.925 158.5,401C 156.21,404.05 155.877,407.384 157.5,411C 157.095,411.945 156.428,412.612 155.5,413C 157.124,414.117 158.124,415.617 158.5,417.5C 157.179,419.332 156.179,421.332 155.5,423.5C 154.152,426.926 154.819,430.093 157.5,433C 162.306,434.763 166.972,436.596 171.5,438.5C 168.174,438.646 165.007,437.979 162,436.5C 160.08,437.088 158.413,438.088 157,439.5C 155.956,437.285 155.29,434.952 155,432.5C 154.333,431.833 153.667,431.167 153,430.5C 152.782,427.574 152.282,424.74 151.5,422C 152.965,420.107 154.631,418.44 156.5,417C 155.704,415.908 155.037,414.741 154.5,413.5C 155.134,408.99 155.801,404.49 156.5,400C 155.062,397.288 155.729,395.121 158.5,393.5C 159.452,395.045 159.785,396.712 159.5,398.5C 168.133,397.51 176.8,396.843 185.5,396.5 Z"/></g>
<g><path style="opacity:1" fill="#d25f7c" d="M 207.5,431.5 C 208.774,432.189 208.774,433.023 207.5,434C 199.838,435.941 192.171,437.441 184.5,438.5C 192.254,436.484 199.921,434.151 207.5,431.5 Z"/></g>
<g><path style="opacity:1" fill="#fcefcd" d="M 392.5,420.5 C 392.196,421.15 391.863,421.817 391.5,422.5C 392.949,423.172 394.282,423.839 395.5,424.5C 394.167,424.5 392.833,424.5 391.5,424.5C 390.266,430.267 392.6,432.934 398.5,432.5C 402.625,433.581 406.792,434.914 411,436.5C 411.765,436.43 412.265,436.097 412.5,435.5C 414.284,436.72 415.95,436.72 417.5,435.5C 423.63,434.316 429.63,432.816 435.5,431C 437.192,429.599 437.859,427.766 437.5,425.5C 438.167,425.5 438.833,425.5 439.5,425.5C 439.104,428.044 439.771,430.211 441.5,432C 432.889,434.329 424.223,436.663 415.5,439C 412.779,439.602 410.113,439.435 407.5,438.5C 401.43,436.476 395.43,434.143 389.5,431.5C 389.336,428.813 389.503,426.146 390,423.5C 390.236,421.881 391.069,420.881 392.5,420.5 Z"/></g>
<g><path style="opacity:1" fill="#daaa5a" d="M 437.5,425.5 C 437.859,427.766 437.192,429.599 435.5,431C 429.63,432.816 423.63,434.316 417.5,435.5C 416.5,435.5 415.5,435.5 414.5,435.5C 414.077,433.219 414.744,431.552 416.5,430.5C 414.863,432.124 415.197,433.124 417.5,433.5C 423.856,433.131 429.856,431.631 435.5,429C 431.514,428.501 427.514,428.334 423.5,428.5C 427.921,426.898 432.588,425.898 437.5,425.5 Z"/></g>
<g><path style="opacity:1" fill="#f5d89b" d="M 412.5,429.5 C 414.167,429.5 415.833,429.5 417.5,429.5C 417.5,430.167 417.167,430.5 416.5,430.5C 414.744,431.552 414.077,433.219 414.5,435.5C 415.5,435.5 416.5,435.5 417.5,435.5C 415.95,436.72 414.284,436.72 412.5,435.5C 412.5,433.5 412.5,431.5 412.5,429.5 Z"/></g>
<g><path style="opacity:1" fill="#dfa94b" d="M 423.5,428.5 C 427.514,428.334 431.514,428.501 435.5,429C 429.856,431.631 423.856,433.131 417.5,433.5C 415.197,433.124 414.863,432.124 416.5,430.5C 417.167,430.5 417.5,430.167 417.5,429.5C 419.565,429.483 421.565,429.15 423.5,428.5 Z"/></g>
<g><path style="opacity:1" fill="#e0a957" d="M 397.5,425.5 C 402.537,426.676 407.537,428.009 412.5,429.5C 412.5,431.5 412.5,433.5 412.5,435.5C 412.265,436.097 411.765,436.43 411,436.5C 406.792,434.914 402.625,433.581 398.5,432.5C 397.042,430.989 395.209,429.989 393,429.5C 392.51,428.207 392.343,426.873 392.5,425.5C 394.167,425.5 395.833,425.5 397.5,425.5 Z"/></g>
<g><path style="opacity:1" fill="#dbf7f8" d="M 311.5,398.5 C 316.421,398.951 321.088,400.284 325.5,402.5C 322.534,405.743 322.867,408.576 326.5,411C 325.692,411.308 325.025,411.808 324.5,412.5C 325.434,416.37 325.434,420.037 324.5,423.5C 320.232,426.841 320.566,429.674 325.5,432C 315.376,435.193 305.042,437.693 294.5,439.5C 287.006,437.51 279.839,434.843 273,431.5C 272.718,427.998 272.551,424.665 272.5,421.5C 273.325,420.614 274.325,420.281 275.5,420.5C 275.5,418.833 275.5,417.167 275.5,415.5C 276.652,414.375 277.652,414.375 278.5,415.5C 277.157,417.683 277.49,419.683 279.5,421.5C 277.799,421.966 276.299,421.966 275,421.5C 274.536,422.094 274.369,422.761 274.5,423.5C 274.232,426.119 274.565,428.619 275.5,431C 282.087,433.127 288.754,434.961 295.5,436.5C 295.702,434.05 295.369,431.717 294.5,429.5C 295.5,429.5 296.5,429.5 297.5,429.5C 296.631,431.717 296.298,434.05 296.5,436.5C 304.081,434.456 311.748,432.623 319.5,431C 320.807,429.057 320.807,427.223 319.5,425.5C 320.23,424.288 321.23,423.288 322.5,422.5C 322.376,421.893 322.043,421.56 321.5,421.5C 324.004,418.629 324.004,415.962 321.5,413.5C 321.611,412.883 321.944,412.383 322.5,412C 320.866,411.506 319.199,411.34 317.5,411.5C 318.568,410.566 319.901,410.232 321.5,410.5C 321.5,408.833 321.5,407.167 321.5,405.5C 320.5,405.5 319.5,405.5 318.5,405.5C 319.598,404.603 319.598,403.77 318.5,403C 319.167,402.667 319.833,402.333 320.5,402C 316.958,401.879 313.958,400.713 311.5,398.5 Z"/></g>
<g><path style="opacity:1" fill="#77bcc3" d="M 319.5,425.5 C 320.807,427.223 320.807,429.057 319.5,431C 311.748,432.623 304.081,434.456 296.5,436.5C 296.298,434.05 296.631,431.717 297.5,429.5C 304.822,428.303 312.155,426.97 319.5,425.5 Z"/></g>
<g><path style="opacity:1" fill="#75bcc2" d="M 274.5,423.5 C 281.064,425.808 287.73,427.808 294.5,429.5C 295.369,431.717 295.702,434.05 295.5,436.5C 288.754,434.961 282.087,433.127 275.5,431C 274.565,428.619 274.232,426.119 274.5,423.5 Z"/></g>
<g><path style="opacity:1" fill="#76bbc1" d="M 278.5,415.5 C 285.836,416.834 293.169,418.168 300.5,419.5C 300.5,421.5 300.5,423.5 300.5,425.5C 293.471,424.326 286.471,422.993 279.5,421.5C 277.49,419.683 277.157,417.683 278.5,415.5 Z"/></g>
<g><path style="opacity:1" fill="#deac60" d="M 442.5,420.5 C 442.778,423.29 442.111,425.79 440.5,428C 441.101,429.605 442.101,430.938 443.5,432C 442.315,433.353 440.981,434.52 439.5,435.5C 430.666,437.495 421.833,439.162 413,440.5C 410.705,440.453 408.871,439.787 407.5,438.5C 410.113,439.435 412.779,439.602 415.5,439C 424.223,436.663 432.889,434.329 441.5,432C 439.771,430.211 439.104,428.044 439.5,425.5C 440.935,424.087 441.935,422.42 442.5,420.5 Z"/></g>
<g><path style="opacity:1" fill="#fcf6de" d="M 467.5,423.5 C 467.68,429.766 466.513,435.766 464,441.5C 463.184,442.823 462.017,443.489 460.5,443.5C 463.084,438.509 464.751,433.176 465.5,427.5C 466.167,426.167 466.833,424.833 467.5,423.5 Z"/></g>
<g><path style="opacity:1" fill="#dff9f4" d="M 16.5,432.5 C 18.5395,437.582 20.8728,442.582 23.5,447.5C 21.9826,447.489 20.8159,446.823 20,445.5C 17.4283,441.546 16.2616,437.213 16.5,432.5 Z"/></g>
<g><path style="opacity:1" fill="#fef5d6" d="M 374.5,445.5 C 378.138,449.474 381.805,453.474 385.5,457.5C 383.574,456.758 381.741,455.758 380,454.5C 377.642,451.778 375.809,448.778 374.5,445.5 Z"/></g>
<g><path style="opacity:1" fill="#fbf0d1" d="M 455.5,450.5 C 453.861,454.139 451.195,456.805 447.5,458.5C 449.833,455.5 452.5,452.833 455.5,450.5 Z"/></g>
<g><path style="opacity:1" fill="#ebfdfa" d="M 23.5,447.5 C 35.7686,462.626 51.7686,469.626 71.5,468.5C 69.6028,469.805 67.2695,470.471 64.5,470.5C 54.9942,469.894 46.1609,467.227 38,462.5C 35.9011,463.287 33.7345,463.62 31.5,463.5C 31.4208,462.07 31.7542,460.736 32.5,459.5C 29.9941,457.494 27.8274,455.16 26,452.5C 25.6667,453.167 25.3333,453.833 25,454.5C 24.5604,452.134 24.0604,449.801 23.5,447.5 Z"/></g>
<g><path style="opacity:1" fill="#d46a88" d="M 156.5,460.5 C 160.463,461.595 164.129,463.262 167.5,465.5C 163.164,465.163 159.497,463.496 156.5,460.5 Z"/></g>
<g><path style="opacity:1" fill="#daab5c" d="M 397.5,463.5 C 404.107,464.354 409.941,465.354 415,466.5C 417.833,466.333 420.667,466.167 423.5,466C 422.007,464.844 422.174,464.01 424,463.5C 427.828,464.692 431.662,464.692 435.5,463.5C 433.967,465.245 431.967,466.245 429.5,466.5C 422.869,467.331 416.202,467.664 409.5,467.5C 405.708,467.274 402.041,466.44 398.5,465C 397.944,464.617 397.611,464.117 397.5,463.5 Z"/></g>
<g><path style="opacity:1" fill="#f5e2bd" d="M 429.5,466.5 C 429.082,467.222 428.416,467.722 427.5,468C 421.319,468.819 415.319,468.653 409.5,467.5C 416.202,467.664 422.869,467.331 429.5,466.5 Z"/></g>
<g><path style="opacity:1" fill="#d1d1d1" d="M 257.5,509.5 C 254.5,509.5 251.5,509.5 248.5,509.5C 248.389,508.883 248.056,508.383 247.5,508C 251.476,505.501 254.809,506.001 257.5,509.5 Z"/></g>
</svg>
